<svg width="72" height="72" viewBox="0 0 72 72" fill="none" xmlns="http://www.w3.org/2000/svg">
<path d="M59.3346 12.6655C53.1017 6.43264 44.8146 3 36 3C27.1854 3 18.8983 6.43264 12.6654 12.6655C6.43252 18.8984 3 27.1854 3 36C3 44.8146 6.43252 53.1017 12.6654 59.3345C18.8983 65.5672 27.1854 69 36 69C44.8146 69 53.1017 65.5674 59.3346 59.3345C65.5675 53.1016 69 44.8146 69 36C69 27.1854 65.5675 18.8983 59.3346 12.6655ZM36 62.5227C21.3752 62.5227 9.47728 50.6247 9.47728 36C9.47728 35.976 9.47806 35.9523 9.47818 35.9286C9.47818 35.9225 9.47728 35.9167 9.47728 35.9107C9.47728 35.9005 9.47857 35.8907 9.47883 35.8806C9.54315 21.4311 21.2204 9.67528 35.6396 9.48192C35.6697 9.4805 35.6996 9.47741 35.7302 9.47741C35.7485 9.47741 35.7663 9.4796 35.7845 9.48012C35.8564 9.4796 35.9281 9.47741 36.0001 9.47741C50.6249 9.47741 62.5228 21.3755 62.5228 36.0001C62.5228 50.6248 50.6248 62.5227 36 62.5227Z" fill="#C43D3D"/>
<path d="M56.1456 37.5934C55.0672 37.5934 54.193 36.7192 54.193 35.6408C54.193 34.5623 55.0672 33.6881 56.1456 33.6881H58.4993C57.3938 22.8502 48.6042 14.2525 37.682 13.4453V15.4943C37.682 16.5727 36.8078 17.4469 35.7293 17.4469C34.6509 17.4469 33.7767 16.5727 33.7767 15.4943V13.492C23.0161 14.5464 14.4447 23.1731 13.475 33.9579H15.5828C16.6613 33.9579 17.5355 34.8321 17.5355 35.9106C17.5355 36.989 16.6613 37.8633 15.5828 37.8633H13.459C14.3568 48.8217 23.1 57.5917 34.0466 58.5323V56.057C34.0466 54.9785 34.9208 54.1043 35.9993 54.1043C37.0777 54.1043 37.9519 54.9785 37.9519 56.057V58.5323C48.9881 57.584 57.7846 48.6773 58.5598 37.5934H56.1456ZM43.9038 30.8571L37.3801 37.3809C37.0139 37.7471 36.5173 37.9528 35.9994 37.9528C35.4816 37.9528 34.9848 37.7471 34.6187 37.3809L23.2629 26.0251C22.5003 25.2627 22.5003 24.0263 23.2629 23.2637C24.0254 22.5011 25.2618 22.5011 26.0244 23.2637L35.9995 33.2387L41.1426 28.0956C41.9051 27.333 43.1415 27.333 43.9041 28.0956C44.6664 28.8581 44.6664 30.0946 43.9038 30.8571Z" fill="#CCCCCC"/>
</svg>
