<svg width="72" height="72" viewBox="0 0 72 72" fill="none" xmlns="http://www.w3.org/2000/svg">
<path d="M36.0004 24.2812C31.2076 24.2812 27.3086 28.1805 27.3086 32.9732C27.3086 36.42 29.3551 39.5454 32.5224 40.9356L33.784 41.4894V47.6415H38.2169V41.4894L39.4784 40.9356C42.6457 39.5454 44.6923 36.4199 44.6923 32.9732C44.6924 28.1805 40.7931 24.2812 36.0004 24.2812Z" fill="#C43D3D"/>
<path d="M58.995 34.2311C58.7864 21.7298 48.5521 11.625 36.002 11.625C23.322 11.625 13.0059 21.941 13.0059 34.621C13.0059 41.2526 15.8231 47.4732 20.7705 51.8452V71.9996H48.1452V61.7125H58.9982V50.1897H64.96L58.995 34.2311ZM42.4375 44.1613V51.8607H29.5669V44.1613C25.5921 41.8725 23.0915 37.62 23.0915 32.9733C23.0915 25.8543 28.8833 20.0625 36.0022 20.0625C43.1212 20.0625 48.913 25.8543 48.913 32.9733C48.9128 37.6201 46.4121 41.8725 42.4375 44.1613Z" fill="#CCCCCC"/>
<path d="M38.1095 0H33.8906V7.40139H38.1095V0Z" fill="#CCCCCC"/>
<path d="M47.3033 1.82774L44.4707 8.66602L48.3685 10.2806L51.2011 3.44231L47.3033 1.82774Z" fill="#CCCCCC"/>
<path d="M24.7025 1.82879L20.8047 3.44336L23.6373 10.2816L27.5351 8.66706L24.7025 1.82879Z" fill="#CCCCCC"/>
<path d="M58.9893 8.64939L53.7559 13.8828L56.7389 16.8659L61.9724 11.6325L58.9893 8.64939Z" fill="#CCCCCC"/>
<path d="M67.1803 19.4232L60.3418 22.2559L61.9564 26.1537L68.7949 23.321L67.1803 19.4232Z" fill="#CCCCCC"/>
<path d="M13.0104 8.64778L10.0273 11.6309L15.2609 16.8644L18.2439 13.8813L13.0104 8.64778Z" fill="#CCCCCC"/>
<path d="M4.8216 19.4225L3.20703 23.3203L10.0454 26.1529L11.66 22.2551L4.8216 19.4225Z" fill="#CCCCCC"/>
</svg>
