<svg width="16" height="16" viewBox="0 0 16 16" fill="none" xmlns="http://www.w3.org/2000/svg">
<path d="M8.00058 5.39511C6.56699 5.39511 5.39707 6.56503 5.39707 7.99863C5.39707 9.43222 6.56699 10.6021 8.00058 10.6021C9.43417 10.6021 10.6041 9.43222 10.6041 7.99863C10.6041 6.56503 9.43417 5.39511 8.00058 5.39511ZM15.8092 7.99863C15.8092 6.9205 15.8189 5.85214 15.7584 4.77597C15.6978 3.52597 15.4127 2.4166 14.4986 1.50253C13.5826 0.586518 12.4752 0.303315 11.2252 0.242768C10.1471 0.182222 9.0787 0.191987 8.00253 0.191987C6.92441 0.191987 5.85605 0.182222 4.77988 0.242768C3.52988 0.303315 2.4205 0.588471 1.50644 1.50253C0.590425 2.41855 0.307222 3.52597 0.246675 4.77597C0.186128 5.8541 0.195893 6.92246 0.195893 7.99863C0.195893 9.0748 0.186128 10.1451 0.246675 11.2213C0.307222 12.4713 0.592378 13.5807 1.50644 14.4947C2.42246 15.4107 3.52988 15.6939 4.77988 15.7545C5.858 15.815 6.92636 15.8053 8.00253 15.8053C9.08066 15.8053 10.149 15.815 11.2252 15.7545C12.4752 15.6939 13.5846 15.4088 14.4986 14.4947C15.4146 13.5787 15.6978 12.4713 15.7584 11.2213C15.8209 10.1451 15.8092 9.07675 15.8092 7.99863ZM8.00058 12.0045C5.78378 12.0045 3.99472 10.2154 3.99472 7.99863C3.99472 5.78183 5.78378 3.99277 8.00058 3.99277C10.2174 3.99277 12.0064 5.78183 12.0064 7.99863C12.0064 10.2154 10.2174 12.0045 8.00058 12.0045ZM12.1705 4.76425C11.6529 4.76425 11.235 4.34628 11.235 3.82871C11.235 3.31113 11.6529 2.89316 12.1705 2.89316C12.6881 2.89316 13.1061 3.31113 13.1061 3.82871C13.1062 3.95161 13.0821 4.07333 13.0351 4.18691C12.9882 4.30048 12.9193 4.40368 12.8324 4.49058C12.7455 4.57749 12.6423 4.64639 12.5287 4.69335C12.4151 4.74031 12.2934 4.76441 12.1705 4.76425Z" fill="white"/>
</svg>
