<svg width="12" height="16" viewBox="0 0 12 16" fill="none" xmlns="http://www.w3.org/2000/svg">
<path d="M0.230522 5.87917C0.230522 5.23084 0.343855 4.61834 0.567188 4.04667C0.780566 3.49142 1.09759 2.98181 1.50136 2.545C1.9043 2.11393 2.36541 1.74117 2.87136 1.4375C3.39045 1.12346 3.95244 0.886542 4.53969 0.73417C5.13403 0.578104 5.74603 0.499399 6.36052 0.500003C7.30969 0.500003 8.19302 0.700837 9.01219 1.10084C9.82066 1.49354 10.5088 2.09621 11.0047 2.84584C11.5164 3.60834 11.7705 4.47084 11.7705 5.4325C11.7705 6.00917 11.7139 6.57334 11.598 7.125C11.4843 7.67636 11.3035 8.21173 11.0597 8.71917C10.8273 9.21038 10.5234 9.66448 10.158 10.0667C9.79075 10.4625 9.34598 10.7785 8.85136 10.995C8.31436 11.2303 7.73346 11.3488 7.14719 11.3425C6.73969 11.3425 6.33302 11.2467 5.93136 11.0542C5.52969 10.8625 5.24135 10.5992 5.06802 10.2617C5.00719 10.4958 4.92386 10.8342 4.81302 11.2767C4.70636 11.7183 4.63469 12.0033 4.60302 12.1325C4.56969 12.2608 4.50802 12.475 4.41802 12.7717C4.35699 12.9911 4.27869 13.2054 4.18386 13.4125L3.89719 13.9742C3.77322 14.2152 3.63462 14.4484 3.48219 14.6725C3.33136 14.8908 3.14469 15.1517 2.92219 15.4517L2.79802 15.4958L2.71552 15.4058C2.62636 14.4617 2.58052 13.8967 2.58052 13.71C2.58052 13.1575 2.64636 12.5375 2.77636 11.8492C2.90386 11.1617 3.10552 10.2975 3.37636 9.25834C3.64719 8.22 3.80219 7.60917 3.84386 7.42834C3.65302 7.03917 3.55635 6.53084 3.55635 5.90584C3.55635 5.40667 3.71219 4.93917 4.02469 4.49917C4.33802 4.06084 4.73386 3.84167 5.21386 3.84167C5.58136 3.84167 5.86635 3.96334 6.07052 4.2075C6.27552 4.45084 6.37552 4.7575 6.37552 5.13167C6.37552 5.52834 6.24386 6.1025 5.97886 6.85334C5.71386 7.605 5.58219 8.16584 5.58219 8.53834C5.58219 8.91584 5.71719 9.23167 5.98719 9.47917C6.25364 9.72679 6.60602 9.86099 6.96969 9.85334C7.29969 9.85334 7.60552 9.77834 7.88969 9.6275C8.16941 9.48109 8.41154 9.27205 8.59719 9.01667C9.00154 8.46192 9.28979 7.83128 9.44469 7.1625C9.52469 6.81084 9.58636 6.47667 9.62469 6.1625C9.66552 5.84667 9.68302 5.54834 9.68302 5.265C9.68302 4.22584 9.35302 3.41584 8.69719 2.83584C8.03802 2.25584 7.17969 1.9675 6.12386 1.9675C4.92302 1.9675 3.91886 2.35584 3.11469 3.135C2.30969 3.91167 1.90469 4.89917 1.90469 6.09667C1.90469 6.36084 1.94469 6.61584 2.02052 6.8625C2.09469 7.10834 2.17552 7.30417 2.26302 7.44917C2.34969 7.59167 2.43136 7.73084 2.50552 7.85917C2.58052 7.9875 2.61969 8.07917 2.61969 8.13417C2.61969 8.3025 2.57552 8.52167 2.48636 8.7925C2.39386 9.06334 2.28469 9.19834 2.15302 9.19834C2.14052 9.19834 2.08886 9.18917 1.99885 9.17C1.68716 9.07695 1.40567 8.90299 1.18302 8.66584C0.94672 8.42005 0.760234 8.13084 0.633855 7.81417C0.507836 7.49863 0.409684 7.17266 0.340522 6.84C0.265798 6.52524 0.228871 6.20268 0.230522 5.87917Z" fill="white"/>
</svg>
