<svg width="16" height="14" viewBox="0 0 16 14" fill="none" xmlns="http://www.w3.org/2000/svg">
<path d="M15.5 2.35268C14.9383 2.60132 14.3425 2.76418 13.7325 2.83581C14.3747 2.45123 14.8554 1.84643 15.085 1.13393C14.481 1.49189 13.8205 1.74465 13.1319 1.88143C12.71 1.4304 12.1621 1.11674 11.5596 0.981238C10.9571 0.845734 10.3277 0.894655 9.7533 1.12164C9.17893 1.34862 8.68614 1.74317 8.33901 2.25398C7.99188 2.76478 7.80646 3.36821 7.80688 3.98581C7.80688 4.22768 7.83375 4.46206 7.88812 4.68643C6.66407 4.62618 5.46645 4.30869 4.3733 3.75463C3.28016 3.20057 2.31603 2.42239 1.54375 1.47081C1.26936 1.9405 1.12544 2.47497 1.12687 3.01893C1.12687 4.08581 1.66875 5.02831 2.49625 5.58018C2.00747 5.56467 1.52954 5.43222 1.1025 5.19393V5.23331C1.10208 5.94404 1.34777 6.63299 1.79782 7.18308C2.24787 7.73317 2.87451 8.11045 3.57125 8.25081C3.11817 8.37506 2.64258 8.39345 2.18125 8.30456C2.37776 8.916 2.76034 9.45079 3.27555 9.83423C3.79077 10.2177 4.41288 10.4306 5.055 10.4433C4.41665 10.9444 3.68576 11.3146 2.90415 11.5328C2.12255 11.7511 1.30558 11.813 0.5 11.7152C1.90658 12.6204 3.54421 13.101 5.21688 13.0996C10.8781 13.0996 13.9744 8.40956 13.9744 4.34206C13.9744 4.21081 13.9694 4.07581 13.9644 3.94393C14.566 3.50834 15.0858 2.96985 15.5 2.35331V2.35268Z" fill="white"/>
</svg>
