<svg width="139" height="41" viewBox="0 0 139 41" fill="none" xmlns="http://www.w3.org/2000/svg">
<g clip-path="url(#clip0_103_11)">
<path d="M51.7203 18.8078H49.3504C49.1652 18.8078 49.0305 18.7662 48.9485 18.6832C48.8655 18.6001 48.8239 18.4665 48.8239 18.2813V11.0976H46.673C46.4878 11.0976 46.353 11.0561 46.2711 10.973C46.188 10.89 46.1465 10.7564 46.1465 10.5711V8.8019C46.1465 8.61667 46.188 8.48195 46.2711 8.4C46.3542 8.31693 46.4878 8.27539 46.673 8.27539H54.3966C54.5818 8.27539 54.7154 8.31693 54.7985 8.4C54.8815 8.48307 54.9231 8.61667 54.9231 8.8019V10.5723C54.9231 10.7575 54.8815 10.8922 54.7985 10.9742C54.7154 11.0572 54.5818 11.0988 54.3966 11.0988H52.2468V18.2813C52.2468 18.4665 52.2052 18.6012 52.1222 18.6832C52.0391 18.7662 51.9055 18.8078 51.7203 18.8078Z" fill="white"/>
<path d="M59.137 18.8078H56.8693C56.684 18.8078 56.5493 18.7662 56.4674 18.6832C56.3843 18.6001 56.3428 18.4665 56.3428 18.2813V8.8019C56.3428 8.61667 56.3843 8.48195 56.4674 8.4C56.5505 8.31805 56.684 8.27539 56.8693 8.27539H59.137C59.3222 8.27539 59.4558 8.31693 59.5389 8.4C59.6219 8.48307 59.6635 8.61667 59.6635 8.8019V11.9767H62.1063V8.8019C62.1063 8.61667 62.1478 8.48195 62.2309 8.4C62.314 8.31693 62.4476 8.27539 62.6328 8.27539H64.9005C65.0857 8.27539 65.2204 8.31693 65.3024 8.4C65.3854 8.48307 65.427 8.61667 65.427 8.8019V18.2813C65.427 18.4665 65.3854 18.6012 65.3024 18.6832C65.2193 18.7662 65.0857 18.8078 64.9005 18.8078H62.6328C62.4476 18.8078 62.3128 18.7662 62.2309 18.6832C62.1478 18.6001 62.1063 18.4665 62.1063 18.2813V15.0335H59.6635V18.2813C59.6635 18.4665 59.6219 18.6012 59.5389 18.6832C59.4558 18.7651 59.3222 18.8078 59.137 18.8078Z" fill="white"/>
<path d="M74.7591 18.8078H67.9718C67.7866 18.8078 67.6519 18.7662 67.5699 18.6832C67.4868 18.6001 67.4453 18.4665 67.4453 18.2813V8.8019C67.4453 8.61667 67.4868 8.48195 67.5699 8.4C67.653 8.31805 67.7866 8.27539 67.9718 8.27539H74.7591C74.9444 8.27539 75.078 8.31693 75.161 8.4C75.2441 8.48307 75.2857 8.61667 75.2857 8.8019V10.5139C75.2857 10.6991 75.2441 10.8338 75.161 10.9158C75.078 10.9989 74.9444 11.0404 74.7591 11.0404H70.7222V12.1664H73.5748C73.76 12.1664 73.8936 12.2079 73.9767 12.291C74.0598 12.3741 74.1013 12.5076 74.1013 12.6929V14.2578C74.1013 14.443 74.0598 14.5777 73.9767 14.6597C73.8936 14.7428 73.76 14.7843 73.5748 14.7843H70.7222V16.0428H74.7591C74.9444 16.0428 75.078 16.0843 75.161 16.1674C75.2441 16.2504 75.2857 16.384 75.2857 16.5693V18.2813C75.2857 18.4665 75.2441 18.6012 75.161 18.6832C75.078 18.7651 74.9444 18.8078 74.7591 18.8078V18.8078Z" fill="white"/>
<path d="M87.3105 18.8078H83.7406C82.5214 18.8078 81.6166 18.5642 81.0272 18.0758C80.4367 17.5886 80.1426 16.8376 80.1426 15.8227V11.2739C80.1426 10.2602 80.4378 9.5069 81.0272 9.01407C81.6177 8.52124 82.5214 8.27539 83.7406 8.27539H87.3105C87.4957 8.27539 87.6293 8.31693 87.7124 8.4C87.7954 8.48307 87.837 8.61667 87.837 8.8019V10.5723C87.837 10.7575 87.7954 10.8922 87.7124 10.9742C87.6293 11.0561 87.4957 11.0988 87.3105 11.0988H84.3703C84.0684 11.0988 83.8438 11.1594 83.6979 11.2818C83.552 11.4041 83.479 11.5871 83.479 11.8307V15.3119C83.479 15.5555 83.552 15.734 83.6979 15.8463C83.8438 15.9586 84.0684 16.0147 84.3703 16.0147H87.3105C87.4957 16.0147 87.6293 16.0562 87.7124 16.1393C87.7954 16.2224 87.837 16.356 87.837 16.5412V18.2824C87.837 18.4676 87.7954 18.6023 87.7124 18.6843C87.6293 18.7673 87.4957 18.8089 87.3105 18.8089V18.8078Z" fill="white"/>
<path d="M92.2708 18.8078H90.0177C89.8325 18.8078 89.6978 18.7662 89.6158 18.6832C89.5327 18.6001 89.4912 18.4665 89.4912 18.2813V8.8019C89.4912 8.61667 89.5327 8.48195 89.6158 8.4C89.6989 8.31805 89.8325 8.27539 90.0177 8.27539H94.8887C95.981 8.27539 96.7343 8.50216 97.1486 8.9557C97.5628 9.40923 97.7705 9.99636 97.7705 10.7182V11.3906C97.7705 11.8004 97.7099 12.1495 97.5875 12.4369C97.4651 12.7243 97.253 12.932 96.951 13.0589C97.4775 13.1172 97.9041 13.3316 98.2308 13.7021C98.5574 14.0726 98.7213 14.5654 98.7213 15.1795V18.2813C98.7213 18.4665 98.6798 18.6012 98.5967 18.6832C98.5137 18.7662 98.3801 18.8078 98.1948 18.8078H95.9272C95.7419 18.8078 95.6072 18.7662 95.5253 18.6832C95.4422 18.6001 95.4007 18.4665 95.4007 18.2813V16.0428C95.4007 15.8283 95.3591 15.6701 95.276 15.5679C95.193 15.4657 95.0493 15.4141 94.845 15.4141H92.7973V18.2813C92.7973 18.4665 92.7558 18.6012 92.6727 18.6832C92.5896 18.7651 92.456 18.8078 92.2708 18.8078V18.8078ZM92.7973 10.9079V12.7804H93.8941C94.1478 12.7804 94.3185 12.7142 94.406 12.5829C94.4936 12.4515 94.5374 12.2876 94.5374 12.0923V11.595C94.5374 11.3996 94.4936 11.2368 94.406 11.1044C94.3185 10.973 94.1478 10.9068 93.8941 10.9068H92.7973V10.9079Z" fill="white"/>
<path d="M105.26 18.8078H102.89C102.705 18.8078 102.57 18.7662 102.488 18.6832C102.405 18.6001 102.364 18.4665 102.364 18.2813V16.4087L100.125 13.4102C99.9005 13.1082 99.7523 12.8444 99.6793 12.6199C99.6064 12.3954 99.5693 12.0597 99.5693 11.6107V8.8019C99.5693 8.61667 99.6109 8.48195 99.6939 8.4C99.777 8.31693 99.9106 8.27539 100.096 8.27539H102.349C102.534 8.27539 102.668 8.31693 102.751 8.4C102.834 8.48307 102.875 8.61667 102.875 8.8019V11.2009C102.875 11.2986 102.88 11.4007 102.89 11.5085C102.9 11.6163 102.938 11.7184 103.007 11.8161L103.679 12.8691C103.727 12.9567 103.779 13.0207 103.833 13.0589C103.887 13.0981 103.952 13.1172 104.031 13.1172H104.177C104.255 13.1172 104.32 13.0981 104.374 13.0589C104.428 13.0196 104.479 12.9567 104.528 12.8691L105.2 11.8161C105.269 11.7184 105.307 11.6163 105.317 11.5085C105.327 11.4019 105.332 11.2986 105.332 11.2009V8.8019C105.332 8.61667 105.373 8.48195 105.456 8.4C105.539 8.31693 105.673 8.27539 105.858 8.27539H108.038C108.224 8.27539 108.357 8.31693 108.44 8.4C108.523 8.48307 108.565 8.61667 108.565 8.8019V11.6107C108.565 12.0597 108.526 12.3954 108.448 12.6199C108.37 12.8444 108.224 13.1082 108.009 13.4102L105.785 16.4233V18.2813C105.785 18.4665 105.744 18.6012 105.661 18.6832C105.578 18.7662 105.444 18.8078 105.259 18.8078H105.26Z" fill="white"/>
<path d="M113.028 18.8078H110.76C110.575 18.8078 110.44 18.7662 110.358 18.6832C110.275 18.6001 110.233 18.4665 110.233 18.2813V8.8019C110.233 8.61667 110.275 8.48195 110.358 8.4C110.441 8.31805 110.575 8.27539 110.76 8.27539H115.237C116.563 8.27539 117.47 8.53921 117.958 9.06571C118.445 9.59222 118.69 10.2804 118.69 11.128V13.0005C118.69 13.8492 118.446 14.5362 117.958 15.0627C117.47 15.5892 116.564 15.853 115.237 15.853H113.554V18.2813C113.554 18.4665 113.513 18.6012 113.429 18.6832C113.346 18.7651 113.213 18.8078 113.028 18.8078V18.8078ZM113.525 11.0101V13.2194H114.842C115.125 13.2194 115.31 13.1464 115.397 13.0005C115.485 12.8545 115.529 12.6884 115.529 12.5032V11.7274C115.529 11.5422 115.485 11.3761 115.397 11.2301C115.31 11.0842 115.125 11.0112 114.842 11.0112H113.525V11.0101Z" fill="white"/>
<path d="M125.185 18.8078H122.815C122.63 18.8078 122.495 18.7662 122.413 18.6832C122.33 18.6001 122.289 18.4665 122.289 18.2813V11.0976H120.138C119.953 11.0976 119.818 11.0561 119.736 10.973C119.653 10.89 119.611 10.7564 119.611 10.5711V8.8019C119.611 8.61667 119.653 8.48195 119.736 8.4C119.819 8.31805 119.953 8.27539 120.138 8.27539H127.861C128.047 8.27539 128.18 8.31693 128.263 8.4C128.346 8.48307 128.388 8.61667 128.388 8.8019V10.5723C128.388 10.7575 128.346 10.8922 128.263 10.9742C128.18 11.0572 128.047 11.0988 127.861 11.0988H125.712V18.2813C125.712 18.4665 125.67 18.6012 125.587 18.6832C125.504 18.7662 125.37 18.8078 125.185 18.8078V18.8078Z" fill="white"/>
<path d="M138.658 16.0429C138.658 16.492 138.591 16.8984 138.46 17.2643C138.329 17.6303 138.094 17.9424 137.757 18.2006C137.42 18.4588 136.958 18.6609 136.367 18.8079C135.777 18.9539 135.029 19.0268 134.122 19.0268C133.215 19.0268 132.464 18.9539 131.869 18.8079C131.274 18.662 130.808 18.4599 130.473 18.2006C130.136 17.9424 129.902 17.6303 129.77 17.2643C129.639 16.8984 129.572 16.492 129.572 16.0429V11.054C129.572 10.6061 129.639 10.1986 129.77 9.83262C129.901 9.46664 130.136 9.15231 130.473 8.88962C130.809 8.62581 131.274 8.42149 131.869 8.27555C132.464 8.12961 133.215 8.05664 134.122 8.05664C135.029 8.05664 135.778 8.12961 136.367 8.27555C136.958 8.42149 137.42 8.62693 137.757 8.88962C138.094 9.15231 138.328 9.46777 138.46 9.83262C138.591 10.1986 138.658 10.6061 138.658 11.054V16.0429ZM132.894 15.5164C132.894 15.7117 132.967 15.8745 133.113 16.007C133.259 16.1383 133.596 16.2046 134.122 16.2046C134.649 16.2046 134.986 16.1383 135.131 16.007C135.277 15.8757 135.35 15.7117 135.35 15.5164V11.5805C135.35 11.3953 135.277 11.237 135.131 11.1057C134.986 10.9743 134.649 10.9081 134.122 10.9081C133.596 10.9081 133.259 10.9743 133.113 11.1057C132.967 11.237 132.894 11.3953 132.894 11.5805V15.5153V15.5164Z" fill="white"/>
<path d="M46.6369 31.8501C46.4646 31.8501 46.3398 31.812 46.2623 31.7345C46.1849 31.6571 46.1467 31.5322 46.1467 31.3599V29.7391C46.1467 29.5669 46.1849 29.442 46.2623 29.3646C46.3398 29.2871 46.4646 29.249 46.6369 29.249H47.9849V24.6721H46.6369C46.4646 24.6721 46.3398 24.6339 46.2623 24.5565C46.1849 24.479 46.1467 24.3541 46.1467 24.1819V22.5333C46.1467 22.3611 46.1849 22.2362 46.2623 22.1588C46.3398 22.0813 46.4646 22.0432 46.6369 22.0432H52.4392C52.6115 22.0432 52.7363 22.0825 52.8138 22.1588C52.8913 22.2362 52.9294 22.3611 52.9294 22.5333V24.1819C52.9294 24.3541 52.8913 24.479 52.8138 24.5565C52.7363 24.6339 52.6115 24.6721 52.4392 24.6721H51.1178V29.249H52.4392C52.6115 29.249 52.7363 29.2883 52.8138 29.3646C52.8913 29.442 52.9294 29.5669 52.9294 29.7391V31.3599C52.9294 31.5322 52.8913 31.6571 52.8138 31.7345C52.7363 31.812 52.6115 31.8501 52.4392 31.8501H46.6369Z" fill="white"/>
<path d="M62.0278 31.8503H55.0948C54.9225 31.8503 54.7977 31.8122 54.7202 31.7347C54.6428 31.6572 54.6046 31.5324 54.6046 31.3601V22.5335C54.6046 22.3613 54.6428 22.2364 54.7202 22.1589C54.7977 22.0815 54.9225 22.0433 55.0948 22.0433H57.2058C57.378 22.0433 57.5029 22.0826 57.5803 22.1589C57.6578 22.2364 57.696 22.3613 57.696 22.5335V29.2757H59.5619V27.0688C59.5619 26.8965 59.6 26.7717 59.6775 26.6942C59.7549 26.6168 59.8798 26.5786 60.052 26.5786H62.0266C62.1989 26.5786 62.3237 26.6179 62.4012 26.6942C62.4786 26.7717 62.5168 26.8965 62.5168 27.0688V31.359C62.5168 31.5312 62.4786 31.6561 62.4012 31.7335C62.3237 31.811 62.1989 31.8492 62.0266 31.8492L62.0278 31.8503Z" fill="white"/>
<path d="M71.4948 31.8503H64.5618C64.3896 31.8503 64.2647 31.8122 64.1873 31.7347C64.1098 31.6572 64.0717 31.5324 64.0717 31.3601V22.5335C64.0717 22.3613 64.1098 22.2364 64.1873 22.1589C64.2647 22.0815 64.3896 22.0433 64.5618 22.0433H66.6728C66.8451 22.0433 66.9699 22.0826 67.0474 22.1589C67.1248 22.2364 67.163 22.3613 67.163 22.5335V29.2757H69.0289V27.0688C69.0289 26.8965 69.0671 26.7717 69.1445 26.6942C69.222 26.6168 69.3468 26.5786 69.5191 26.5786H71.4937C71.6659 26.5786 71.7908 26.6179 71.8682 26.6942C71.9457 26.7717 71.9838 26.8965 71.9838 27.0688V31.359C71.9838 31.5312 71.9457 31.6561 71.8682 31.7335C71.7908 31.811 71.6659 31.8492 71.4937 31.8492L71.4948 31.8503Z" fill="white"/>
<path d="M81.8865 29.2775C81.8865 29.6948 81.8253 30.074 81.7027 30.4151C81.5802 30.7561 81.3617 31.0463 81.0484 31.2868C80.7351 31.5272 80.3062 31.7157 79.7617 31.8521C79.2172 31.9885 78.5224 32.0567 77.6773 32.0567C76.8322 32.0567 76.1385 31.9885 75.5929 31.8521C75.0484 31.7157 74.6195 31.5272 74.3062 31.2868C73.9929 31.0463 73.7744 30.755 73.6518 30.4151C73.5293 30.074 73.468 29.696 73.468 29.2775V22.5353C73.468 22.363 73.5062 22.2382 73.5836 22.1607C73.6611 22.0833 73.7859 22.0451 73.9582 22.0451H76.0969C76.2692 22.0451 76.394 22.0844 76.4715 22.1607C76.549 22.2382 76.5871 22.363 76.5871 22.5353V28.7457C76.5871 28.9272 76.6553 29.0798 76.7917 29.2024C76.9281 29.3249 77.2322 29.3862 77.7039 29.3862C78.1756 29.3862 78.4935 29.3249 78.6299 29.2024C78.7663 29.0798 78.8345 28.9272 78.8345 28.7457V22.5353C78.8345 22.363 78.8727 22.2382 78.9501 22.1607C79.0276 22.0833 79.1524 22.0451 79.3247 22.0451H81.3952C81.5675 22.0451 81.6923 22.0844 81.7698 22.1607C81.8472 22.2382 81.8854 22.363 81.8854 22.5353V29.2775H81.8865Z" fill="white"/>
<path d="M86.2197 31.8501H84.1896C84.0174 31.8501 83.8925 31.812 83.8151 31.7345C83.7376 31.6571 83.6995 31.5322 83.6995 31.3599V22.5333C83.6995 22.3611 83.7376 22.2362 83.8151 22.1588C83.8925 22.0813 84.0174 22.0432 84.1896 22.0432H86.3827C86.5284 22.0432 86.6486 22.0755 86.7434 22.1391C86.8394 22.2027 86.9272 22.3067 87.0093 22.4524L88.2347 24.6721C88.2798 24.7541 88.3191 24.8131 88.3503 24.8489C88.3816 24.8848 88.4255 24.9033 88.4798 24.9033H88.6024C88.6567 24.9033 88.6995 24.8848 88.7319 24.8489C88.7631 24.8131 88.8024 24.7541 88.8475 24.6721L90.0602 22.4524C90.1423 22.3079 90.2301 22.2027 90.3261 22.1391C90.4209 22.0755 90.5411 22.0432 90.6868 22.0432H92.8937C93.066 22.0432 93.1908 22.0825 93.2683 22.1588C93.3457 22.2362 93.3839 22.3611 93.3839 22.5333V31.3599C93.3839 31.5322 93.3446 31.6571 93.2683 31.7345C93.1908 31.812 93.066 31.8501 92.8937 31.8501H90.7966C90.6243 31.8501 90.4995 31.812 90.422 31.7345C90.3446 31.6571 90.3064 31.5322 90.3064 31.3599V26.5657L89.503 28.0501C89.4209 28.205 89.3238 28.316 89.2105 28.3842C89.0972 28.4524 88.9538 28.486 88.7816 28.486H88.2371C88.0648 28.486 87.9214 28.4524 87.8081 28.3842C87.6949 28.316 87.5966 28.205 87.5157 28.0501L86.7122 26.5657V31.3599C86.7122 31.5322 86.6729 31.6571 86.5966 31.7345C86.5191 31.812 86.3943 31.8501 86.222 31.8501H86.2197Z" fill="white"/>
<path d="M95.5344 31.8501C95.3621 31.8501 95.2373 31.812 95.1598 31.7345C95.0823 31.6571 95.0442 31.5322 95.0442 31.3599V29.7391C95.0442 29.5669 95.0823 29.442 95.1598 29.3646C95.2373 29.2871 95.3621 29.249 95.5344 29.249H96.8823V24.6721H95.5344C95.3621 24.6721 95.2373 24.6339 95.1598 24.5565C95.0823 24.479 95.0442 24.3541 95.0442 24.1819V22.5333C95.0442 22.3611 95.0823 22.2362 95.1598 22.1588C95.2373 22.0813 95.3621 22.0432 95.5344 22.0432H101.337C101.509 22.0432 101.634 22.0825 101.711 22.1588C101.789 22.2362 101.827 22.3611 101.827 22.5333V24.1819C101.827 24.3541 101.789 24.479 101.711 24.5565C101.634 24.6339 101.509 24.6721 101.337 24.6721H100.015V29.249H101.337C101.509 29.249 101.634 29.2883 101.711 29.3646C101.789 29.442 101.827 29.5669 101.827 29.7391V31.3599C101.827 31.5322 101.789 31.6571 101.711 31.7345C101.634 31.812 101.509 31.8501 101.337 31.8501H95.5344Z" fill="white"/>
<path d="M106.036 31.8503H103.994C103.821 31.8503 103.696 31.8122 103.619 31.7347C103.542 31.6572 103.503 31.5324 103.503 31.3601V22.5335C103.503 22.3613 103.542 22.2364 103.619 22.1589C103.696 22.0815 103.821 22.0433 103.994 22.0433H105.41C105.582 22.0433 105.73 22.0711 105.853 22.1254C105.975 22.1798 106.095 22.2745 106.213 22.411L108.856 25.4353V22.5347C108.856 22.3624 108.894 22.2376 108.972 22.1601C109.049 22.0826 109.174 22.0445 109.346 22.0445H111.389C111.561 22.0445 111.686 22.0838 111.764 22.1601C111.841 22.2376 111.879 22.3624 111.879 22.5347V31.3613C111.879 31.5335 111.841 31.6584 111.764 31.7359C111.686 31.8133 111.561 31.8515 111.389 31.8515H109.346C109.174 31.8515 109.049 31.8133 108.972 31.7359C108.894 31.6584 108.856 31.5335 108.856 31.3613V29.6861L106.527 26.8665V31.3613C106.527 31.5335 106.488 31.6584 106.411 31.7359C106.333 31.8133 106.209 31.8515 106.036 31.8515V31.8503Z" fill="white"/>
<path d="M116.538 31.3607C116.538 31.533 116.498 31.6579 116.422 31.7353C116.345 31.8128 116.22 31.8509 116.047 31.8509H114.045C113.873 31.8509 113.748 31.8128 113.671 31.7353C113.593 31.6579 113.555 31.533 113.555 31.3607V27.7654C113.555 27.4925 113.598 27.1792 113.684 26.8255C113.771 26.4717 113.904 26.0578 114.087 25.5862L115.272 22.4948C115.326 22.3399 115.41 22.2266 115.524 22.1538C115.637 22.0809 115.785 22.0451 115.967 22.0451H119.63C119.802 22.0451 119.946 22.0809 120.059 22.1538C120.172 22.2266 120.257 22.3399 120.311 22.4948L121.496 25.5862C121.678 26.0578 121.812 26.4717 121.898 26.8255C121.985 27.1792 122.028 27.4925 122.028 27.7654V31.3607C122.028 31.533 121.99 31.6579 121.912 31.7353C121.835 31.8128 121.71 31.8509 121.538 31.8509H119.481C119.299 31.8509 119.165 31.8128 119.079 31.7353C118.992 31.6579 118.949 31.533 118.949 31.3607V29.4544H116.539V31.3607H116.538ZM117.314 24.9041L116.674 26.9746H118.813L118.172 24.9041C118.136 24.822 118.097 24.763 118.057 24.7272C118.016 24.6914 117.968 24.6729 117.913 24.6729H117.572C117.518 24.6729 117.471 24.6914 117.429 24.7272C117.388 24.763 117.349 24.822 117.313 24.9041H117.314Z" fill="white"/>
<path d="M127.789 31.8503H125.582C125.409 31.8503 125.285 31.8122 125.207 31.7347C125.13 31.6572 125.091 31.5324 125.091 31.3601V24.6722H123.089C122.917 24.6722 122.792 24.6341 122.715 24.5566C122.637 24.4792 122.599 24.3543 122.599 24.1821V22.5335C122.599 22.3613 122.637 22.2364 122.715 22.1589C122.792 22.0815 122.917 22.0433 123.089 22.0433H130.281C130.453 22.0433 130.578 22.0826 130.656 22.1589C130.733 22.2364 130.771 22.3613 130.771 22.5335V24.1821C130.771 24.3543 130.733 24.4792 130.656 24.5566C130.578 24.6341 130.453 24.6722 130.281 24.6722H128.279V31.3601C128.279 31.5324 128.239 31.6572 128.163 31.7347C128.086 31.8122 127.961 31.8503 127.789 31.8503V31.8503Z" fill="white"/>
<path d="M132.365 31.8501C132.193 31.8501 132.068 31.812 131.991 31.7345C131.913 31.6571 131.875 31.5322 131.875 31.3599V29.7391C131.875 29.5669 131.913 29.442 131.991 29.3646C132.068 29.2871 132.193 29.249 132.365 29.249H133.713V24.6721H132.365C132.193 24.6721 132.068 24.6339 131.991 24.5565C131.913 24.479 131.875 24.3541 131.875 24.1819V22.5333C131.875 22.3611 131.913 22.2362 131.991 22.1588C132.068 22.0813 132.193 22.0432 132.365 22.0432H138.168C138.34 22.0432 138.465 22.0825 138.542 22.1588C138.62 22.2362 138.658 22.3611 138.658 22.5333V24.1819C138.658 24.3541 138.62 24.479 138.542 24.5565C138.465 24.6339 138.34 24.6721 138.168 24.6721H136.846V29.249H138.168C138.34 29.249 138.465 29.2883 138.542 29.3646C138.62 29.442 138.658 29.5669 138.658 29.7391V31.3599C138.658 31.5322 138.62 31.6571 138.542 31.7345C138.465 31.812 138.34 31.8501 138.168 31.8501H132.365V31.8501Z" fill="white"/>
</g>
<g clip-path="url(#clip1_103_11)">
<path d="M18.7719 11.3613L27.3351 26.4078H10.2842L18.7719 11.3613Z" fill="white"/>
<path d="M25.9171 23.918C25.3095 24.4257 24.6363 24.8538 23.9183 25.2016C22.3413 25.965 20.5471 26.3428 18.7536 26.3365C16.9608 26.3303 15.1701 25.9406 13.5987 25.1667C12.9114 24.8287 12.2668 24.4152 11.6822 23.9298L11.3086 24.5926C11.9434 25.1325 12.6474 25.59 13.4003 25.9608C13.739 26.1277 14.0876 26.2758 14.4437 26.4085H23.1501C23.4783 26.2863 23.8003 26.1494 24.1139 25.9978C24.9003 25.6172 25.6343 25.1437 26.2936 24.5787L25.9178 23.9194L25.9171 23.918Z" fill="black"/>
<path d="M14.4602 19.0043C14.5936 18.9813 14.7235 19.019 14.8255 19.1139C14.9386 19.2187 14.9854 19.3633 14.9554 19.5141C14.9079 19.7544 14.8827 20.0044 14.882 20.2614C14.8785 21.3363 15.3109 22.3106 16.0128 23.018C16.7147 23.7248 17.6868 24.1641 18.7624 24.1676C19.8372 24.1711 20.8122 23.7388 21.519 23.0369C22.2258 22.335 22.6651 21.3628 22.6686 20.2873C22.6693 20.0338 22.6462 19.7865 22.6008 19.547C22.5722 19.3954 22.6204 19.2508 22.7349 19.1468C22.8495 19.0427 22.9975 19.0085 23.1456 19.0511H23.1484L21.5707 16.2798C20.6558 16.0424 19.7227 15.9215 18.7889 15.918C17.8566 15.9146 16.9235 16.0291 16.0086 16.2603L14.4602 19.0043V19.0043ZM21.8682 20.2056C21.8689 19.9618 21.8417 19.7237 21.7886 19.496C21.7683 19.4073 21.8228 19.3186 21.9108 19.2969C21.9995 19.2753 22.0896 19.3291 22.1119 19.4171C22.1133 19.4233 22.1154 19.4296 22.1168 19.4359C22.1846 19.7083 22.2202 19.9932 22.2195 20.2852C22.216 21.2357 21.8277 22.0954 21.2019 22.717C20.5761 23.3386 19.7136 23.7213 18.7617 23.7178C17.8112 23.7143 16.9514 23.326 16.3298 22.7003C15.7083 22.0745 15.3255 21.212 15.329 20.2607C15.3297 19.9716 15.3674 19.688 15.4373 19.4157C15.4498 19.3661 15.4638 19.3172 15.4785 19.269C15.505 19.1824 15.5965 19.1321 15.6838 19.1573C15.7711 19.1824 15.8228 19.2739 15.7977 19.3619C15.725 19.6231 15.6852 19.899 15.6845 20.1839C15.6789 21.8915 17.0583 23.2799 18.7652 23.2855C20.4728 23.2911 21.8612 21.9118 21.8668 20.2049L21.8682 20.2056Z" fill="black"/>
<path d="M37.8892 29.9993L21.1079 0.22768C21.1079 0.22768 21.1072 0.226283 21.1065 0.226283C21.1065 0.225585 21.1058 0.224188 21.1051 0.22349C21.1002 0.215109 21.0939 0.206728 21.0884 0.199046C21.0849 0.194157 21.0814 0.188569 21.0779 0.183681C21.0716 0.1753 21.0646 0.167617 21.0576 0.159935C21.0534 0.155046 21.0492 0.150157 21.045 0.145268C21.0381 0.137586 21.0297 0.1313 21.022 0.125015C21.0171 0.120824 21.0129 0.116634 21.0073 0.112443C20.9983 0.105459 20.9892 0.099872 20.9794 0.0935863C20.9745 0.0907927 20.9703 0.0873007 20.9661 0.0845071C20.9515 0.0761262 20.9368 0.0684437 20.9214 0.0621581C20.92 0.0621581 20.9186 0.0614597 20.9165 0.0607613C20.9026 0.055174 20.8886 0.0502852 20.8739 0.0460948C20.8691 0.044698 20.8635 0.0439995 20.8586 0.0426027C20.8474 0.0398091 20.8362 0.0370155 20.8251 0.0356187C20.8188 0.0349203 20.8125 0.0349203 20.8062 0.0342219C20.7957 0.0335235 20.7859 0.0321267 20.7755 0.0321267L17.0076 0H17.0041C16.8651 0 16.7373 0.0747294 16.6688 0.196252L0.0488884 29.8079C0.0433011 29.8177 0.0391107 29.8282 0.0342219 29.8387C0.0328251 29.8408 0.0321266 29.8436 0.0307298 29.8457C0.0251426 29.8582 0.0209522 29.8708 0.0167617 29.8841C0.0160633 29.8869 0.0146665 29.8897 0.0139681 29.8932C0.0104761 29.9057 0.00768246 29.9183 0.00558724 29.9309C0.00558724 29.9344 0.00419043 29.9379 0.00349203 29.942C0.00209522 29.9539 0.000698405 29.9665 0.000698405 29.9784C0.000698405 29.9825 0.000698405 29.9867 0 29.9916C0 30.0035 0 30.0147 0.00139681 30.0265C0.00139681 30.0314 0.00139681 30.0363 0.00279362 30.0412C0.00419043 30.0524 0.00628565 30.0629 0.00838086 30.074C0.00977768 30.0796 0.0104761 30.0852 0.0118729 30.0901C0.0146665 30.1006 0.0174601 30.1104 0.0209522 30.1201C0.0230474 30.1257 0.0244442 30.132 0.0272378 30.1376C0.0307298 30.1474 0.0356187 30.1565 0.0398091 30.1655C0.0419043 30.1697 0.0433011 30.1746 0.0460948 30.1788L1.85636 33.5682C1.92341 33.6932 2.05331 33.7714 2.19509 33.7714H35.4881C35.5342 33.7714 35.5782 33.7623 35.6201 33.747C35.6236 33.7456 35.6264 33.7449 35.6299 33.7435C35.6396 33.7393 35.6494 33.7344 35.6592 33.7295C35.6641 33.7274 35.669 33.7246 35.6739 33.7225C35.6822 33.7176 35.6899 33.7127 35.6983 33.7071C35.7039 33.7037 35.7095 33.7002 35.7151 33.696C35.722 33.6911 35.7283 33.6855 35.7346 33.6799C35.7409 33.675 35.7465 33.6701 35.7528 33.6645C35.7584 33.659 35.7632 33.6534 35.7688 33.6478C35.7751 33.6415 35.7807 33.6352 35.7863 33.6282C35.7905 33.6226 35.7947 33.6171 35.7989 33.6108C35.8031 33.6052 35.8072 33.6003 35.8107 33.5947L37.8773 30.396C37.9548 30.2759 37.959 30.1229 37.8892 29.9986V29.9993ZM17.229 0.770341L20.1211 0.794785L5.67734 26.6037C5.65359 26.6456 5.63893 26.6917 5.63264 26.7378C5.62077 26.8223 5.63683 26.9096 5.68083 26.9857C5.73251 27.0737 5.81632 27.1365 5.9127 27.1624C5.94483 27.1708 5.97835 27.1757 6.01257 27.1757H27.7721L28.6954 28.7981L29.1584 29.6117H1.03993L17.229 0.770341ZM18.7717 11.361L27.3342 26.4074H10.284L18.7717 11.361V11.361ZM2.42486 33.0032L1.02456 30.3806H29.8191C29.956 30.3806 30.0831 30.3073 30.1516 30.1886C30.1942 30.1145 30.2102 30.0307 30.1997 29.949C30.1977 29.9351 30.1949 29.9204 30.1914 29.9071C30.1914 29.905 30.1907 29.9022 30.19 29.9001C30.1872 29.8883 30.1823 29.8764 30.1781 29.8652C30.1767 29.861 30.1753 29.8568 30.1739 29.8526C30.1697 29.8429 30.1648 29.8331 30.1599 29.8233C30.1571 29.8184 30.1551 29.8128 30.1523 29.8072V29.8059H30.1509L30.1355 29.7786C30.1355 29.7786 30.1334 29.7744 30.132 29.7723L29.5537 28.7561L28.3287 26.603C28.3287 26.603 28.3259 26.5995 28.3252 26.5974L19.211 10.5822L20.7643 7.82982L34.8323 33.0039H2.42486V33.0032ZM35.5118 32.6421L21.1149 6.8332C21.0471 6.71168 20.9186 6.63625 20.7797 6.63625C20.6407 6.63625 20.5129 6.71168 20.4444 6.8325L18.8199 9.71273L18.4358 10.393C18.4358 10.393 18.4358 10.3944 18.4351 10.3951L9.40193 26.4074H6.66768L20.7748 1.20056L37.1063 30.1746L35.5118 32.6421V32.6421Z" fill="black"/>
<path d="M18.2985 19.8079C18.4521 19.7688 18.5513 19.6585 18.5939 19.4804C18.6526 19.2346 18.5108 19.0362 18.1602 18.8763L18.2803 18.5264L18.0233 18.4377L17.9025 18.7876L17.7677 18.7401L17.8878 18.3916L17.6231 18.3008L17.5037 18.6486L17.056 18.4935L16.9575 18.7785L17.1461 18.8434C17.1922 18.8595 17.2131 18.886 17.2229 18.9056C17.2341 18.9286 17.2334 18.9496 17.2299 18.9601L16.8723 20.0028C16.8639 20.0279 16.8423 20.0538 16.7885 20.0356L16.6034 19.9714L16.4414 20.271L16.7662 20.3827C16.7983 20.3939 16.8255 20.4037 16.8528 20.4135C16.866 20.4183 16.8793 20.4232 16.894 20.4281L16.7731 20.7808L17.0309 20.8695L17.1552 20.5189L17.2928 20.5664L17.1712 20.9177L17.4297 21.0064L17.5505 20.6537C17.8892 20.7466 18.2545 20.7822 18.4284 20.3953C18.5394 20.1481 18.4968 19.956 18.2985 19.8086V19.8079ZM17.6385 18.9768L17.9653 19.09C18.1057 19.1382 18.1804 19.2918 18.1315 19.4322C18.0834 19.5726 17.9297 19.6473 17.7893 19.5984L17.4639 19.486L17.6385 18.9768V18.9768ZM17.6203 20.373L17.2083 20.2305L17.3968 19.6808L17.8103 19.824C17.9618 19.8764 18.0422 20.0419 17.9898 20.1935C17.9374 20.345 17.7719 20.4253 17.6203 20.373V20.373Z" fill="white"/>
<path d="M11.104 8.82427L10.9363 8.55469C8.8551 9.85093 7.12235 11.6228 5.87779 13.7194L5.81983 13.6852C5.72903 13.8381 5.64173 13.9925 5.55653 14.1482C5.47132 14.304 5.38821 14.4618 5.30859 14.6203L5.73462 14.8341C5.81214 14.6804 5.89176 14.5275 5.97417 14.3766C6.05659 14.2257 6.14179 14.0756 6.22979 13.9275L6.15087 13.8807C7.36959 11.8281 9.06671 10.0933 11.104 8.82427V8.82427Z" fill="white"/>
<path d="M9.65149 11.4961L10.0489 11.5617C10.2011 11.4248 10.3569 11.2935 10.514 11.1636L10.9149 10.4492C10.4749 10.7718 10.0531 11.121 9.65149 11.4961V11.4961Z" fill="white"/>
<path d="M11.3366 6.89669L11.1892 6.61523C8.20143 8.18246 5.73816 10.6387 4.15627 13.6035L4.09062 13.5686C3.99843 13.7418 3.90973 13.9164 3.82383 14.0917C3.73792 14.2677 3.65481 14.4451 3.5752 14.6245L4.0103 14.818C4.08782 14.6441 4.16814 14.4716 4.25195 14.3005C4.33506 14.1294 4.42166 13.9597 4.51106 13.7914L4.43633 13.7515C5.98889 10.8427 8.40467 8.43249 11.3366 6.8953V6.89669Z" fill="white"/>
<path d="M11.6279 8.14923L11.7816 8.42719C11.908 8.35735 12.0365 8.29031 12.165 8.22396L12.4402 7.73438C12.1657 7.86498 11.894 8.00256 11.6286 8.14993L11.6279 8.14923Z" fill="white"/>
<path d="M31.9648 14.3759C32.0472 14.5268 32.1275 14.6797 32.205 14.8334L32.2874 14.7914L32.402 14.7342L32.6303 14.6196C32.5507 14.4611 32.4683 14.3033 32.3831 14.1475C32.2979 13.9918 32.2099 13.8374 32.1191 13.6845L32.0611 13.7187C30.8166 11.6228 29.0838 9.85023 27.0026 8.55469L26.835 8.82427C28.8729 10.0933 30.5693 11.8288 31.7888 13.8807L31.7098 13.9275C31.7978 14.0756 31.883 14.225 31.9654 14.3759H31.9648Z" fill="white"/>
<path d="M2.50391 21.3522H4.79468L4.97277 21.0352H2.50391V21.3522Z" fill="white"/>
<path d="M23.3175 4.14812C29.1547 5.61687 33.8578 9.97143 35.8133 15.6006H31.3023C30.6766 14.2904 29.8482 13.0961 28.8411 12.0429V12.5059C29.7442 13.4977 30.4894 14.6123 31.0586 15.8262L31.1012 15.9177H35.9209C36.099 16.4638 36.2519 17.0218 36.3769 17.5896H35.717V17.6776H30.944L31.1228 17.9954H35.7163V18.0666H36.4747C36.5159 18.2825 36.555 18.4983 36.5886 18.7169H31.5293L31.7081 19.0346H36.6333C36.671 19.3133 36.7017 19.5941 36.7268 19.8769H32.183L32.3618 20.1947H36.7513C36.7708 20.474 36.7841 20.7541 36.7904 21.037H32.836L33.0148 21.3547H36.7939C36.7939 21.3827 36.7953 21.4106 36.7953 21.4378C36.7953 21.6243 36.7911 21.8101 36.7855 21.9952H35.7163V22.0748H33.4213L33.6001 22.3926H35.7163V22.4715H36.7646C36.752 22.6866 36.7359 22.901 36.7157 23.114H35.2888V23.0344H33.9619L34.23 23.5107H35.2888V23.4318H36.6828C36.6556 23.6734 36.6249 23.9144 36.5886 24.1526H34.5918L34.7706 24.4703H36.5355C36.4063 25.2204 36.2296 25.9537 36.0096 26.6689L36.5264 27.5852C37.2073 25.6353 37.5628 23.5645 37.5628 21.4378C37.5628 16.4708 35.629 11.8012 32.1167 8.28967C29.527 5.69998 26.3066 3.96933 22.8027 3.2381L23.3168 4.14952L23.3175 4.14812Z" fill="white"/>
<path d="M4.86882 16.5468H3.34839V17.0231H4.86882V16.5468Z" fill="white"/>
<path d="M10.7121 34.2667L10.8846 33.9999C10.7694 33.9251 10.6555 33.849 10.5431 33.7715H9.99414C10.2281 33.9426 10.4677 34.1081 10.7128 34.2667H10.7121Z" fill="white"/>
<path d="M2.35437 17.9956H6.6796L6.85769 17.6778H2.35437V17.9956Z" fill="white"/>
<path d="M35.3403 25.478C35.3472 25.4482 35.3548 25.419 35.3625 25.3892L35.2793 25.3691L35.3403 25.4773V25.478Z" fill="white"/>
<path d="M12.0413 6.54906C12.4925 6.33954 12.9541 6.15167 13.4228 5.98405L13.6567 5.56641C13.061 5.76545 12.4764 5.99662 11.9072 6.26132L12.0413 6.54906V6.54906Z" fill="white"/>
<path d="M34.5907 16.5469H33.0703V17.0232H34.5907V16.5469Z" fill="white"/>
<path d="M30.3864 33.7715H29.9157C29.6699 33.9908 29.417 34.2038 29.1572 34.4084L29.3542 34.6578C29.7111 34.3763 30.0554 34.0802 30.3871 33.7715H30.3864Z" fill="white"/>
<path d="M34.1161 14.0919C34.0302 13.9159 33.9415 13.7413 33.8493 13.5688L33.7837 13.6037C33.6747 13.3991 33.5623 13.1951 33.4457 12.9961L33.1719 13.1567C33.2864 13.3523 33.3968 13.552 33.5036 13.7525L33.4296 13.7916C33.519 13.9599 33.6056 14.1296 33.6887 14.3007C33.7718 14.4718 33.8528 14.6443 33.9303 14.8182L34.0093 14.7833V14.7847L34.2998 14.6555V14.6541L34.3648 14.6248C34.2851 14.446 34.202 14.2686 34.1161 14.0919V14.0919Z" fill="white"/>
<path d="M1.88705 26.5336C1.68591 25.861 1.52388 25.1717 1.40235 24.4684H3.0464L3.22449 24.1506H1.34928C1.31296 23.9117 1.28223 23.6715 1.25499 23.4291H2.64901V23.5081H3.58417L3.85166 23.0317H2.64901V23.1114H1.22286C1.20261 22.8984 1.18655 22.6839 1.17398 22.4688H2.22228V22.3892H4.21204L4.39013 22.0714H2.22228V21.9918H1.15233C1.14674 21.8067 1.14255 21.621 1.14255 21.4345C1.14255 21.4066 1.14325 21.3786 1.14394 21.3507H1.71105V21.0329H1.14813C1.15442 20.7508 1.16769 20.47 1.18725 20.1906H5.44612L5.62421 19.8729H1.21239C1.23683 19.59 1.26826 19.3092 1.30597 19.0306H3.02056V18.7128H1.35067C1.3842 18.4949 1.42261 18.2784 1.46451 18.0626H2.22298V17.5863H1.56299C1.6894 17.0122 1.84375 16.4493 2.02463 15.8975H6.84573L6.88833 15.806C7.46451 14.581 8.22019 13.458 9.1365 12.46V11.9997C8.11613 13.0571 7.27734 14.2591 6.64459 15.5798H2.13149C4.06817 10.026 8.68393 5.71408 14.4234 4.19924L14.9409 3.27734C11.5125 4.03092 8.36336 5.74551 5.82117 8.28771C2.30888 11.7993 0.375 16.4688 0.375 21.4359C0.375 23.5164 0.715822 25.5446 1.36813 27.4575L1.88705 26.5336V26.5336Z" fill="white"/>
<path d="M31.8251 33.7715C29.1817 36.5253 25.6652 38.4354 21.7248 39.0493V38.8042L22.6844 37.8446C24.862 37.3529 26.8902 36.4422 28.7144 35.139L28.5301 34.8806C26.7282 36.1684 24.723 37.0645 22.5706 37.545L22.5259 37.5547L21.4084 38.6722V39.0947C21.1696 39.1276 20.9293 39.1562 20.6877 39.1792V37.4221L21.6438 36.4659C23.3723 36.16 25.0206 35.5601 26.5445 34.6843L26.3859 34.4091C24.8795 35.2752 23.2494 35.8646 21.5397 36.1621L21.4901 36.1705L20.3699 37.2908V39.2079C20.131 39.2267 19.8901 39.2393 19.6484 39.2484V35.9987L20.6018 35.0454C21.7562 34.9078 22.889 34.6235 23.9681 34.1989L23.8514 33.9035C22.7808 34.3246 21.6563 34.6047 20.5096 34.7367L20.4544 34.743L19.33 35.8674V39.2582C19.2098 39.2603 19.0897 39.263 18.9696 39.263C18.8495 39.263 18.7293 39.261 18.6092 39.2582V35.8674L17.4848 34.743L17.4296 34.7367C16.2835 34.6054 15.1591 34.3246 14.0884 33.9035L13.9725 34.1989C15.0522 34.6235 16.1843 34.9085 17.3388 35.0454L18.2914 35.9987V39.2484C18.0498 39.2393 17.8095 39.2267 17.5707 39.2079V37.2908L16.4497 36.1705L16.4001 36.1621C14.6911 35.8646 13.0604 35.2752 11.5539 34.4091L11.3961 34.6843C12.92 35.5601 14.5682 36.1593 16.2961 36.4659L17.2529 37.4228V39.1799C17.0112 39.1569 16.771 39.1283 16.5314 39.0954V38.6729L15.414 37.5554L15.3686 37.5457C15.0271 37.4695 14.6835 37.3808 14.3475 37.2831L14.2588 37.5876C14.5864 37.6833 14.9209 37.7699 15.2548 37.8453L16.2144 38.8049V39.05C12.274 38.4361 8.75749 36.526 6.11403 33.7722H5.05664C5.30318 34.0495 5.5574 34.3211 5.82139 34.5851C9.33368 38.0974 14.0032 40.0313 18.9696 40.0313C23.9359 40.0313 28.6062 38.0974 32.1178 34.5851C32.3825 34.3204 32.6367 34.0488 32.8825 33.7722H31.8251V33.7715Z" fill="white"/>
<path d="M25.5508 8.11122C25.7555 8.21179 25.958 8.31725 26.1571 8.4276L26.3107 8.14963C25.9748 7.96456 25.6305 7.79205 25.2812 7.63281L25.5508 8.11122V8.11122Z" fill="white"/>
<path d="M33.0224 12.3158C30.9621 9.16388 27.8703 6.76975 24.3161 5.57617L24.2441 5.79128L24.3119 5.91071C27.7585 7.09311 30.7547 9.42578 32.7577 12.4897L33.0231 12.3158H33.0224Z" fill="white"/>
<path d="M27.9456 33.7715H27.3959C27.2828 33.849 27.1696 33.9258 27.0537 34.0006L27.2262 34.2674C27.4714 34.1088 27.7109 33.9433 27.9449 33.7722L27.9456 33.7715Z" fill="white"/>
<path d="M27.1446 10.9376C27.3436 11.092 27.5392 11.2512 27.7298 11.4174H28.2027C27.748 10.9998 27.2675 10.615 26.7646 10.2637L27.1446 10.9376Z" fill="white"/>
<path d="M13.5984 37.0435C11.5402 36.3332 9.64474 35.2123 8.02583 33.7715H7.55371C9.25922 35.3548 11.2853 36.5819 13.4943 37.3438L13.5977 37.0435H13.5984Z" fill="white"/>
<path d="M6.27466 18.7168H3.81348V19.0346H6.09656L6.27466 18.7168Z" fill="white"/>
<path d="M16.0078 16.262C16.9234 16.0309 17.8565 15.9149 18.7896 15.9184C19.724 15.9219 20.6571 16.0434 21.5727 16.2816L18.7728 11.3613L16.0085 16.262H16.0078Z" fill="#C43D3D"/>
<path d="M11.3079 24.5923L11.4581 24.3262L10.2841 26.4081H14.4431C14.0869 26.2754 13.7384 26.1274 13.3996 25.9604C12.6468 25.5896 11.9428 25.1328 11.3079 24.5923V24.5923Z" fill="#C43D3D"/>
<path d="M26.2939 24.5769C25.6353 25.1419 24.9013 25.6161 24.1142 25.996C23.8006 26.1476 23.4786 26.2845 23.1504 26.4067H27.3352L26.2932 24.5762L26.2939 24.5769Z" fill="#C43D3D"/>
<path d="M17.2291 0.769531L20.1212 0.793975L5.67745 26.6029C5.65371 26.6448 5.63904 26.6908 5.63275 26.7369C5.62088 26.8215 5.63694 26.9088 5.68094 26.9849C5.73263 27.0729 5.81643 27.1357 5.91281 27.1616C5.94494 27.17 5.97846 27.1748 6.01269 27.1748H27.7722L28.6955 28.7972L29.1585 29.6109H1.04004L17.2291 0.769531Z" fill="white"/>
<path d="M2.42484 33.0032L1.02454 30.3807H29.8191C29.956 30.3807 30.0831 30.3073 30.1515 30.1886C30.1941 30.1146 30.2102 30.0307 30.1997 29.949C30.1976 29.9351 30.1948 29.9204 30.1913 29.9071C30.1913 29.905 30.1906 29.9022 30.1899 29.9001C30.1872 29.8883 30.1823 29.8764 30.1781 29.8652C30.1767 29.861 30.1753 29.8568 30.1739 29.8527C30.1697 29.8429 30.1648 29.8331 30.1599 29.8233C30.1571 29.8184 30.155 29.8128 30.1522 29.8073V29.8059H30.1508L30.1355 29.7786C30.1355 29.7786 30.1334 29.7744 30.132 29.7723L29.5537 28.7562L28.3287 26.603C28.3287 26.603 28.3259 26.5995 28.3252 26.5974L19.211 10.5823L20.7643 7.82983L34.8322 33.0039H2.42484V33.0032Z" fill="white"/>
<path d="M35.5111 32.642L21.1142 6.83381C21.0465 6.71229 20.918 6.63686 20.779 6.63686C20.64 6.63686 20.5122 6.71229 20.4437 6.83311L18.8192 9.71334L18.4351 10.3936C18.4351 10.3936 18.4351 10.395 18.4344 10.3957L9.40125 26.408H6.66699L20.7741 1.20117L37.1056 30.1752L35.5111 32.6427V32.642Z" fill="white"/>
</g>
<defs>
<clipPath id="clip0_103_11">
<rect width="92.5113" height="24.0004" fill="white" transform="translate(46.1465 8.05469)"/>
</clipPath>
<clipPath id="clip1_103_11">
<rect width="37.9388" height="40.0305" fill="white"/>
</clipPath>
</defs>
</svg>
