<svg width="68" height="69" viewBox="0 0 68 69" fill="none" xmlns="http://www.w3.org/2000/svg">
<path d="M59.3957 5.67188H8.60559C7.07486 5.67188 5.60683 6.2689 4.52445 7.3316C3.44206 8.39431 2.83398 9.83565 2.83398 11.3385V19.2719H37.4636L45.313 11.5652C46.4679 10.4416 47.9885 9.75276 49.6087 9.61924C51.2288 9.48573 52.8452 9.91608 54.1747 10.8349C55.5042 11.7538 56.462 13.1026 56.8805 14.6451C57.299 16.1876 57.1515 17.8254 56.4637 19.2719H65.1673V11.3385C65.1673 9.83565 64.5592 8.39431 63.4769 7.3316C62.3945 6.2689 60.9264 5.67188 59.3957 5.67188ZM15.5315 14.7385C15.0749 14.7385 14.6286 14.6056 14.2489 14.3565C13.8692 14.1075 13.5733 13.7535 13.3986 13.3393C13.2239 12.9251 13.1782 12.4694 13.2672 12.0297C13.3563 11.59 13.5762 11.1861 13.8991 10.8691C14.2219 10.5521 14.6333 10.3362 15.0811 10.2488C15.529 10.1613 15.9931 10.2062 16.415 10.3777C16.8368 10.5493 17.1974 10.8398 17.4511 11.2126C17.7048 11.5853 17.8402 12.0236 17.8402 12.4719C17.8402 13.073 17.5969 13.6496 17.164 14.0746C16.731 14.4997 16.1438 14.7385 15.5315 14.7385ZM24.7661 14.7385C24.3095 14.7385 23.8631 14.6056 23.4835 14.3565C23.1038 14.1075 22.8079 13.7535 22.6332 13.3393C22.4584 12.9251 22.4127 12.4694 22.5018 12.0297C22.5909 11.59 22.8108 11.1861 23.1336 10.8691C23.4565 10.5521 23.8679 10.3362 24.3157 10.2488C24.7635 10.1613 25.2277 10.2062 25.6496 10.3777C26.0714 10.5493 26.432 10.8398 26.6856 11.2126C26.9393 11.5853 27.0747 12.0236 27.0747 12.4719C27.0747 13.073 26.8315 13.6496 26.3985 14.0746C25.9656 14.4997 25.3784 14.7385 24.7661 14.7385ZM54.7784 21.5385L40.6957 35.2745C40.0469 35.9123 39.1667 36.2711 38.2486 36.2719H33.3542C32.4358 36.2719 31.555 35.9137 30.9055 35.276C30.2561 34.6384 29.8913 33.7736 29.8913 32.8719V28.0665C29.8921 27.1651 30.2575 26.3009 30.9071 25.6639L35.1088 21.5385H2.83398V56.6719C2.83398 58.1748 3.44206 59.6161 4.52445 60.6788C5.60683 61.7415 7.07486 62.3385 8.60559 62.3385H59.3957C60.9264 62.3385 62.3945 61.7415 63.4769 60.6788C64.5592 59.6161 65.1673 58.1748 65.1673 56.6719V21.5385H54.7784ZM13.2229 32.8719H22.4574C22.7636 32.8719 23.0572 32.9913 23.2737 33.2038C23.4901 33.4164 23.6118 33.7046 23.6118 34.0052C23.6118 34.3058 23.4901 34.5941 23.2737 34.8066C23.0572 35.0191 22.7636 35.1385 22.4574 35.1385H13.2229C12.9167 35.1385 12.6231 35.0191 12.4066 34.8066C12.1902 34.5941 12.0686 34.3058 12.0686 34.0052C12.0686 33.7046 12.1902 33.4164 12.4066 33.2038C12.6231 32.9913 12.9167 32.8719 13.2229 32.8719ZM13.2229 41.9385H45.5439C45.85 41.9385 46.1436 42.0579 46.3601 42.2705C46.5766 42.483 46.6982 42.7713 46.6982 43.0719C46.6982 43.3725 46.5766 43.6607 46.3601 43.8733C46.1436 44.0858 45.85 44.2052 45.5439 44.2052H13.2229C12.9167 44.2052 12.6231 44.0858 12.4066 43.8733C12.1902 43.6607 12.0686 43.3725 12.0686 43.0719C12.0686 42.7713 12.1902 42.483 12.4066 42.2705C12.6231 42.0579 12.9167 41.9385 13.2229 41.9385ZM54.7784 53.2719H13.2229C12.9167 53.2719 12.6231 53.1525 12.4066 52.9399C12.1902 52.7274 12.0686 52.4391 12.0686 52.1385C12.0686 51.838 12.1902 51.5497 12.4066 51.3372C12.6231 51.1246 12.9167 51.0052 13.2229 51.0052H54.7784C55.0846 51.0052 55.3782 51.1246 55.5947 51.3372C55.8111 51.5497 55.9327 51.838 55.9327 52.1385C55.9327 52.4391 55.8111 52.7274 55.5947 52.9399C55.3782 53.1525 55.0846 53.2719 54.7784 53.2719ZM53.4163 13.1745C53.8456 13.5956 54.1862 14.0955 54.4186 14.6459C54.6509 15.1962 54.7705 15.7861 54.7705 16.3819C54.7705 16.9776 54.6509 17.5675 54.4186 18.1179C54.1862 18.6682 53.8456 19.1682 53.4163 19.5892L39.0797 33.6652C38.9722 33.7747 38.843 33.8614 38.7 33.9199C38.5571 33.9784 38.4034 34.0074 38.2486 34.0052H33.3542C33.0481 34.0052 32.7545 33.8858 32.538 33.6733C32.3215 33.4607 32.1999 33.1725 32.1999 32.8719V28.0665C32.1981 27.9179 32.2279 27.7705 32.2876 27.6339C32.3472 27.4973 32.4353 27.3744 32.5462 27.2732L46.906 13.1745C47.7711 12.3302 48.9413 11.8563 50.1611 11.8563C51.381 11.8563 52.5512 12.3302 53.4163 13.1745Z" fill="white"/>
<path d="M53.4167 13.1737C53.846 13.5948 54.1866 14.0947 54.4189 14.6451C54.6513 15.1954 54.7709 15.7853 54.7709 16.3811C54.7709 16.9768 54.6513 17.5667 54.4189 18.1171C54.1866 18.6674 53.846 19.1674 53.4167 19.5884L39.08 33.6644C38.9726 33.7739 38.8434 33.8606 38.7004 33.9191C38.5574 33.9776 38.4038 34.0066 38.2489 34.0044H33.3546C33.0485 34.0044 32.7548 33.885 32.5384 33.6725C32.3219 33.4599 32.2003 33.1716 32.2003 32.8711V28.0657C32.1984 27.9171 32.2283 27.7697 32.2879 27.6331C32.3476 27.4965 32.4357 27.3736 32.5466 27.2724L46.9063 13.1737C47.7714 12.3294 48.9417 11.8555 50.1615 11.8555C51.3813 11.8555 52.5516 12.3294 53.4167 13.1737Z" fill="#C43D3D"/>
</svg>
