<svg width="72" height="72" viewBox="0 0 72 72" fill="none" xmlns="http://www.w3.org/2000/svg">
<path d="M36.0011 24.2819C31.2083 24.2819 27.3093 28.1812 27.3093 32.9738C27.3093 36.4207 29.3558 39.5461 32.5231 40.9363L33.7847 41.4901V47.6422H38.2176V41.4901L39.4792 40.9363C42.6465 39.5461 44.693 36.4206 44.693 32.9738C44.6931 28.1812 40.7939 24.2819 36.0011 24.2819Z" fill="#060606"/>
<path d="M58.994 34.2314C58.7854 21.7301 48.5512 11.6254 36.0011 11.6254C23.321 11.6254 13.0049 21.9414 13.0049 34.6214C13.0049 41.253 15.8222 47.4736 20.7695 51.8456V72H48.1442V61.7129H58.9972V50.19H64.959L58.994 34.2314ZM42.4365 44.1617V51.8611H29.5659V44.1617C25.5911 41.8729 23.0905 37.6204 23.0905 32.9737C23.0905 25.8547 28.8823 20.0629 36.0012 20.0629C43.1202 20.0629 48.912 25.8547 48.912 32.9737C48.9119 37.6205 46.4111 41.8729 42.4365 44.1617Z" fill="#060606"/>
<path d="M38.11 0H33.8911V7.40139H38.11V0Z" fill="#060606"/>
<path d="M47.3038 1.82765L44.4712 8.66592L48.369 10.2805L51.2016 3.44222L47.3038 1.82765Z" fill="#060606"/>
<path d="M24.702 1.82927L20.8042 3.44385L23.6368 10.2821L27.5346 8.66755L24.702 1.82927Z" fill="#060606"/>
<path d="M58.9895 8.64914L53.7561 13.8826L56.7392 16.8657L61.9726 11.6322L58.9895 8.64914Z" fill="#060606"/>
<path d="M67.1798 19.4239L60.3413 22.2566L61.9559 26.1544L68.7944 23.3218L67.1798 19.4239Z" fill="#060606"/>
<path d="M13.0112 8.64897L10.0281 11.632L15.2616 16.8656L18.2447 13.8825L13.0112 8.64897Z" fill="#060606"/>
<path d="M4.82258 19.4229L3.20801 23.3207L10.0464 26.1533L11.661 22.2555L4.82258 19.4229Z" fill="#060606"/>
</svg>
