<svg width="179" height="40" viewBox="0 0 179 40" fill="none" xmlns="http://www.w3.org/2000/svg">
<path d="M5.85873 5.92651H34.1523V34.5455C37.7725 30.8833 40.0121 25.8245 40.0121 20.2364C40.0121 9.05962 31.0543 0 20.0066 0C8.95871 0 0 9.06002 0 20.2364C0 25.8244 2.23962 30.8824 5.85973 34.5442L5.85873 5.92651Z" fill="#060606"/>
<path d="M5.45619 34.5455V40H34.5559V34.5455H5.45619Z" fill="#060606"/>
<path d="M50.5326 18.8C50.5326 27.024 56.5824 30.448 62.8563 30.448C65.3531 30.448 67.9139 29.904 70.1545 28.944V17.84H65.5771V25.84C64.9049 26.096 64.0727 26.256 63.1124 26.256C59.8154 26.256 55.4301 24.752 55.4301 18.8C55.4301 13.552 59.3673 11.44 63.3685 11.44C65.6412 11.44 67.9139 12.048 69.6104 13.168V8.592C67.5297 7.664 65.129 7.152 62.7283 7.152C56.5824 7.152 50.5326 10.672 50.5326 18.8Z" fill="#060606"/>
<path d="M76.0848 30L77.7493 25.808H87.9924L89.6249 30H94.5864L85.4637 7.6H80.2781L71.1233 30H76.0848ZM82.3587 13.808C82.5508 13.36 82.7108 12.912 82.8709 12.048C83.0309 12.912 83.191 13.36 83.351 13.808L86.488 21.84H79.2538L82.3587 13.808Z" fill="#060606"/>
<path d="M96.4512 7.6V30H112.232V25.68H101.253V7.6H96.4512Z" fill="#060606"/>
<path d="M117.067 30L118.732 25.808H128.975L130.607 30H135.569L126.446 7.6H121.26L112.106 30H117.067ZM123.341 13.808C123.533 13.36 123.693 12.912 123.853 12.048C124.013 12.912 124.173 13.36 124.333 13.808L127.47 21.84H120.236L123.341 13.808Z" fill="#060606"/>
<path d="M140.443 30L145.884 21.84L151.294 30H156.928L148.893 18.384L156.447 7.6H150.814L145.884 14.96L140.923 7.6H135.321L142.875 18.384L134.841 30H140.443Z" fill="#060606"/>
<path d="M169.723 30V22.064L178.462 7.6H173.052L167.322 17.648L161.592 7.6H156.183L164.953 22.064V30H169.723Z" fill="#060606"/>
</svg>
