<svg width="134" height="28" viewBox="0 0 134 28" fill="none" xmlns="http://www.w3.org/2000/svg">
<path d="M27.7 2.372V27.5H22.66V9.968L16.216 27.5H11.824L5.38 10.04V27.5H0.304V2.372H6.46L14.092 21.272L21.58 2.372H27.7ZM44.7882 8.996C44.4042 6.5 43.1322 5.252 40.9722 5.252C39.2922 5.252 38.0682 5.996 37.3002 7.484C36.5322 8.948 36.1962 11.252 36.2922 14.396C36.6762 13.244 37.4202 12.332 38.5242 11.66C39.6522 10.964 40.9602 10.616 42.4482 10.616C44.8962 10.616 46.8162 11.36 48.2082 12.848C49.6242 14.312 50.3322 16.4 50.3322 19.112C50.3322 20.792 49.9962 22.28 49.3242 23.576C48.6522 24.872 47.6442 25.892 46.3002 26.636C44.9802 27.38 43.3722 27.752 41.4762 27.752C37.7802 27.752 35.2362 26.612 33.8442 24.332C32.4522 22.028 31.7562 18.86 31.7562 14.828C31.7562 10.196 32.5002 6.764 33.9882 4.532C35.5002 2.3 37.9362 1.184 41.2962 1.184C43.8642 1.184 45.8322 1.916 47.2002 3.38C48.5682 4.844 49.3482 6.716 49.5402 8.996H44.7882ZM36.7242 18.752C36.7242 20.096 37.1082 21.212 37.8762 22.1C38.6682 22.964 39.8202 23.396 41.3322 23.396C42.6282 23.396 43.6602 23.012 44.4282 22.244C45.1962 21.476 45.5802 20.408 45.5802 19.04C45.5802 17.6 45.1842 16.496 44.3922 15.728C43.6242 14.96 42.5802 14.576 41.2602 14.576C40.0122 14.576 38.9442 14.936 38.0562 15.656C37.1682 16.376 36.7242 17.408 36.7242 18.752ZM59.1522 23.612H67.6842V27.5H54.0762V2.084H59.1522V23.612ZM78.1571 7.304C79.8371 7.304 81.2771 7.7 82.4771 8.492C83.6771 9.284 84.5291 10.352 85.0331 11.696V7.556H90.0731V27.5H85.0331V23.324C84.5291 24.668 83.6771 25.748 82.4771 26.564C81.2771 27.356 79.8371 27.752 78.1571 27.752C76.4771 27.752 74.9651 27.344 73.6211 26.528C72.2771 25.712 71.2211 24.536 70.4531 23C69.7091 21.44 69.3371 19.616 69.3371 17.528C69.3371 15.44 69.7091 13.628 70.4531 12.092C71.2211 10.532 72.2771 9.344 73.6211 8.528C74.9651 7.712 76.4771 7.304 78.1571 7.304ZM79.7411 11.732C78.1571 11.732 76.8851 12.248 75.9251 13.28C74.9651 14.312 74.4851 15.728 74.4851 17.528C74.4851 19.328 74.9651 20.744 75.9251 21.776C76.8851 22.784 78.1571 23.288 79.7411 23.288C81.2771 23.288 82.5371 22.772 83.5211 21.74C84.5291 20.684 85.0331 19.28 85.0331 17.528C85.0331 15.752 84.5291 14.348 83.5211 13.316C82.5371 12.26 81.2771 11.732 79.7411 11.732ZM106.229 7.304C107.909 7.304 109.421 7.712 110.765 8.528C112.109 9.344 113.153 10.532 113.897 12.092C114.665 13.628 115.049 15.44 115.049 17.528C115.049 19.616 114.665 21.44 113.897 23C113.153 24.536 112.109 25.712 110.765 26.528C109.421 27.344 107.909 27.752 106.229 27.752C104.549 27.752 103.109 27.356 101.909 26.564C100.733 25.748 99.8932 24.668 99.3892 23.324V27.5H94.3132V0.86H99.3892V11.696C99.8932 10.352 100.733 9.284 101.909 8.492C103.109 7.7 104.549 7.304 106.229 7.304ZM104.645 11.732C103.109 11.732 101.837 12.26 100.829 13.316C99.8452 14.348 99.3532 15.752 99.3532 17.528C99.3532 19.28 99.8452 20.684 100.829 21.74C101.837 22.772 103.109 23.288 104.645 23.288C106.229 23.288 107.501 22.784 108.461 21.776C109.421 20.744 109.901 19.328 109.901 17.528C109.901 15.728 109.421 14.312 108.461 13.28C107.501 12.248 106.229 11.732 104.645 11.732ZM125.157 7.304C127.581 7.304 129.525 7.916 130.989 9.14C132.453 10.364 133.365 11.996 133.725 14.036H128.973C128.781 13.076 128.349 12.308 127.677 11.732C127.005 11.156 126.129 10.868 125.049 10.868C124.185 10.868 123.513 11.072 123.033 11.48C122.553 11.888 122.313 12.44 122.313 13.136C122.313 13.688 122.505 14.132 122.889 14.468C123.273 14.804 123.753 15.068 124.329 15.26C124.905 15.452 125.733 15.68 126.813 15.944C128.325 16.28 129.549 16.64 130.485 17.024C131.445 17.384 132.261 17.972 132.933 18.788C133.629 19.58 133.977 20.66 133.977 22.028C133.977 23.732 133.305 25.112 131.961 26.168C130.641 27.224 128.853 27.752 126.597 27.752C124.005 27.752 121.929 27.176 120.369 26.024C118.809 24.848 117.861 23.18 117.525 21.02H122.385C122.505 22.004 122.937 22.784 123.681 23.36C124.425 23.912 125.397 24.188 126.597 24.188C127.461 24.188 128.121 23.984 128.577 23.576C129.033 23.144 129.261 22.592 129.261 21.92C129.261 21.344 129.057 20.876 128.649 20.516C128.265 20.156 127.773 19.88 127.173 19.688C126.597 19.496 125.769 19.268 124.689 19.004C123.201 18.668 121.989 18.332 121.053 17.996C120.141 17.636 119.349 17.072 118.677 16.304C118.029 15.536 117.705 14.48 117.705 13.136C117.705 11.408 118.365 10.004 119.685 8.924C121.005 7.844 122.829 7.304 125.157 7.304Z" fill="#060606"/>
</svg>
