<svg width="66" height="60" viewBox="0 0 66 60" fill="none" xmlns="http://www.w3.org/2000/svg">
<path d="M59.8889 0H6.11111C4.49034 0 2.93596 0.632141 1.7899 1.75736C0.643847 2.88258 0 4.4087 0 6V14.4H36.6667L44.9778 6.24C46.2006 5.05032 47.8107 4.32093 49.5262 4.17956C51.2416 4.0382 52.953 4.49386 54.3607 5.46677C55.7684 6.43967 56.7826 7.86779 57.2257 9.50102C57.6689 11.1343 57.5126 12.8685 56.7844 14.4H66V6C66 4.4087 65.3562 2.88258 64.2101 1.75736C63.064 0.632141 61.5097 0 59.8889 0ZM13.4444 9.6C12.961 9.6 12.4884 9.45924 12.0864 9.19553C11.6844 8.93181 11.3711 8.55698 11.1861 8.11844C11.0011 7.6799 10.9526 7.19734 11.047 6.73178C11.1413 6.26623 11.3741 5.83859 11.716 5.50294C12.0578 5.1673 12.4934 4.93872 12.9676 4.84612C13.4417 4.75351 13.9332 4.80104 14.3799 4.98269C14.8266 5.16434 15.2083 5.47195 15.4769 5.86663C15.7455 6.26131 15.8889 6.72533 15.8889 7.2C15.8889 7.83652 15.6313 8.44697 15.1729 8.89706C14.7145 9.34714 14.0928 9.6 13.4444 9.6ZM23.2222 9.6C22.7388 9.6 22.2661 9.45924 21.8642 9.19553C21.4622 8.93181 21.1489 8.55698 20.9639 8.11844C20.7788 7.6799 20.7304 7.19734 20.8247 6.73178C20.9191 6.26623 21.1519 5.83859 21.4937 5.50294C21.8356 5.1673 22.2712 4.93872 22.7453 4.84612C23.2195 4.75351 23.711 4.80104 24.1577 4.98269C24.6043 5.16434 24.9861 5.47195 25.2547 5.86663C25.5233 6.26131 25.6667 6.72533 25.6667 7.2C25.6667 7.83652 25.4091 8.44697 24.9507 8.89706C24.4923 9.34714 23.8705 9.6 23.2222 9.6ZM55 16.8L40.0889 31.344C39.4019 32.0193 38.4699 32.3992 37.4978 32.4H32.3156C31.3431 32.4 30.4105 32.0207 29.7228 31.3456C29.0352 30.6705 28.6489 29.7548 28.6489 28.8V23.712C28.6497 22.7575 29.0366 21.8425 29.7244 21.168L34.1733 16.8H0V54C0 55.5913 0.643847 57.1174 1.7899 58.2426C2.93596 59.3679 4.49034 60 6.11111 60H59.8889C61.5097 60 63.064 59.3679 64.2101 58.2426C65.3562 57.1174 66 55.5913 66 54V16.8H55ZM11 28.8H20.7778C21.1019 28.8 21.4128 28.9264 21.642 29.1515C21.8712 29.3765 22 29.6817 22 30C22 30.3183 21.8712 30.6235 21.642 30.8485C21.4128 31.0736 21.1019 31.2 20.7778 31.2H11C10.6758 31.2 10.365 31.0736 10.1358 30.8485C9.90655 30.6235 9.77778 30.3183 9.77778 30C9.77778 29.6817 9.90655 29.3765 10.1358 29.1515C10.365 28.9264 10.6758 28.8 11 28.8ZM11 38.4H45.2222C45.5464 38.4 45.8573 38.5264 46.0865 38.7515C46.3157 38.9765 46.4444 39.2817 46.4444 39.6C46.4444 39.9183 46.3157 40.2235 46.0865 40.4485C45.8573 40.6736 45.5464 40.8 45.2222 40.8H11C10.6758 40.8 10.365 40.6736 10.1358 40.4485C9.90655 40.2235 9.77778 39.9183 9.77778 39.6C9.77778 39.2817 9.90655 38.9765 10.1358 38.7515C10.365 38.5264 10.6758 38.4 11 38.4ZM55 50.4H11C10.6758 50.4 10.365 50.2736 10.1358 50.0485C9.90655 49.8235 9.77778 49.5183 9.77778 49.2C9.77778 48.8817 9.90655 48.5765 10.1358 48.3515C10.365 48.1264 10.6758 48 11 48H55C55.3242 48 55.635 48.1264 55.8642 48.3515C56.0935 48.5765 56.2222 48.8817 56.2222 49.2C56.2222 49.5183 56.0935 49.8235 55.8642 50.0485C55.635 50.2736 55.3242 50.4 55 50.4ZM53.5578 7.944C54.0123 8.38979 54.3729 8.91918 54.619 9.50189C54.865 10.0846 54.9916 10.7092 54.9916 11.34C54.9916 11.9708 54.865 12.5954 54.619 13.1781C54.3729 13.7608 54.0123 14.2902 53.5578 14.736L38.3778 29.64C38.264 29.756 38.1272 29.8477 37.9758 29.9097C37.8245 29.9716 37.6617 30.0023 37.4978 30H32.3156C31.9914 30 31.6805 29.8736 31.4513 29.6485C31.2221 29.4235 31.0933 29.1183 31.0933 28.8V23.712C31.0914 23.5546 31.123 23.3986 31.1861 23.2539C31.2493 23.1092 31.3426 22.9792 31.46 22.872L46.6644 7.944C47.5804 7.05 48.8195 6.5482 50.1111 6.5482C51.4027 6.5482 52.6418 7.05 53.5578 7.944Z" fill="#060606"/>
</svg>
