<svg width="20" height="20" viewBox="0 0 20 20" fill="none" xmlns="http://www.w3.org/2000/svg">
<path d="M11.0835 13.2444L9.99807 11.3594L8.91406 13.2444L9.99946 15.1292L11.0835 13.2444Z" fill="#060606"/>
<path d="M10.0003 8.96875C7.6405 8.96875 5.7207 10.8872 5.7207 13.2449C5.7207 15.6047 7.6407 17.5245 10.0003 17.5245C12.3603 17.5245 14.2801 15.6045 14.2801 13.2449C14.2801 10.8872 12.3603 8.96875 10.0003 8.96875ZM11.4891 13.3465L10.1745 15.6325C10.1387 15.6945 10.0727 15.7327 10.0011 15.7327C9.9297 15.7327 9.8635 15.6945 9.8279 15.6325L8.5119 13.3465C8.4763 13.2847 8.4761 13.209 8.5117 13.147L9.8263 10.8609C9.8975 10.7371 10.1019 10.7371 10.1729 10.8609L11.4889 13.147C11.5245 13.2086 11.5247 13.2845 11.4891 13.3465Z" fill="#060606"/>
<path d="M14.0246 8.32812C13.7606 8.46213 13.4626 8.53412 13.1526 8.53412H6.84658C6.53458 8.53412 6.23858 8.46213 5.97458 8.32812C4.51658 9.52612 3.64258 11.3321 3.64258 13.2441C3.64258 16.7481 6.49458 19.6001 9.99858 19.6001C13.5046 19.6001 16.3566 16.7481 16.3566 13.2441C16.3566 11.3321 15.4826 9.52412 14.0246 8.32812ZM10.0002 17.9237C7.41978 17.9237 5.32058 15.8245 5.32058 13.2441C5.32058 10.6655 7.41978 8.56793 10.0002 8.56793C12.5806 8.56793 14.68 10.6655 14.68 13.2441C14.68 15.8245 12.5806 17.9237 10.0002 17.9237Z" fill="#060606"/>
<path d="M4.32266 3.74639L5.36866 7.05039C5.57466 7.69839 6.16866 8.13439 6.84666 8.13439H13.1527C13.8327 8.13439 14.4267 7.69839 14.6327 7.05039L15.6787 3.74639C16.1567 3.68839 16.5287 3.28039 16.5287 2.78639C16.5287 2.25439 16.0967 1.82239 15.5647 1.82239C15.0327 1.82239 14.5987 2.25439 14.5987 2.78639C14.5987 3.10639 14.7547 3.39039 14.9967 3.56639L12.5947 5.07039L10.4147 2.23639C10.7407 2.08239 10.9647 1.75039 10.9647 1.36639C10.9647 0.834391 10.5327 0.400391 10.0007 0.400391C9.46866 0.400391 9.03466 0.834391 9.03466 1.36639C9.03466 1.75039 9.26066 2.08239 9.58666 2.23639L7.40666 5.07039L5.00266 3.56639C5.24466 3.39239 5.40266 3.10639 5.40266 2.78639C5.40266 2.25439 4.96866 1.82239 4.43666 1.82239C3.90466 1.82239 3.47266 2.25439 3.47266 2.78639C3.47266 3.28039 3.84466 3.68839 4.32266 3.74639Z" fill="#060606"/>
</svg>
