<svg width="20" height="16" viewBox="0 0 20 16" fill="none" xmlns="http://www.w3.org/2000/svg">
<path d="M20.0004 12.21C19.9536 9.60059 19.6454 6.96192 19.1399 4.29864C18.7282 2.44825 17.2469 0.800199 14.8801 0.679496C13.1329 0.607621 12.795 1.60293 10.8153 1.58379C10.2731 1.58028 9.7313 1.58028 9.18912 1.58379C7.20904 1.60293 6.87037 0.607621 5.12388 0.679496C2.75669 0.800199 1.22935 2.44395 0.862553 4.29864C0.356694 6.96192 0.0484909 9.6002 0.00200652 12.2096C-0.00932161 14.0264 1.78443 15.235 2.96802 15.3178C5.25435 15.4904 7.07076 11.4588 8.45474 11.4584C9.48638 11.4643 10.5176 11.4647 11.5493 11.4584C12.9336 11.4584 14.7485 15.4908 17.0364 15.3182C18.2196 15.2354 20.0598 14.0186 20.0008 12.21H20.0004ZM7.45904 7.11856H6.39263V8.18496C6.39263 8.63496 6.02779 8.99981 5.57779 8.99981C5.12779 8.99981 4.76294 8.63496 4.76294 8.18496V7.11856H3.69654C3.24654 7.11856 2.88169 6.75371 2.88169 6.30371C2.88169 5.85371 3.24654 5.48887 3.69654 5.48887H4.76294V4.42246C4.76294 3.97246 5.12779 3.60762 5.57779 3.60762C6.02779 3.60762 6.39263 3.97246 6.39263 4.42246V5.48887H7.45904C7.90904 5.48887 8.27388 5.85371 8.27388 6.30371C8.27388 6.75371 7.90904 7.11856 7.45904 7.11856ZM14.0438 8.99942C13.4059 9.0166 12.8754 8.5127 12.8583 7.8752C12.8415 7.23535 13.3458 6.7041 13.9833 6.6877C14.6215 6.67168 15.1528 7.1752 15.1692 7.81348C15.1852 8.45176 14.6817 8.98301 14.0438 8.99942ZM15.9676 5.91934C15.3297 5.93731 14.7981 5.43301 14.7805 4.79512C14.7645 4.15606 15.268 3.62559 15.9063 3.60801C16.5454 3.59121 17.0758 4.09551 17.093 4.73379C17.1098 5.37168 16.6051 5.90332 15.9676 5.91934Z" fill="#060606"/>
</svg>
