<svg width="20" height="20" viewBox="0 0 20 20" fill="none" xmlns="http://www.w3.org/2000/svg">
<path d="M18.0004 8.00171C17.0915 8.00461 16.299 8.62045 16.0723 9.50043H12.952C12.8778 9.0564 12.7037 8.63525 12.4427 8.26843L14.9518 5.76034C14.9624 5.74615 14.9724 5.7312 14.9814 5.71579C15.9291 6.28189 17.1566 5.97275 17.7229 5.02533C18.2892 4.07791 17.9801 2.85095 17.0323 2.28485C16.0845 1.71859 14.8571 2.02774 14.2907 2.97516C13.9136 3.60595 13.9133 4.39285 14.2899 5.02395C14.2743 5.03296 14.2594 5.04287 14.2449 5.05371L11.736 7.56164C11.369 7.30087 10.9476 7.12707 10.5035 7.05292V3.93387C11.5726 3.65783 12.2154 2.5679 11.9395 1.49932C11.6635 0.430598 10.5731 -0.21195 9.504 0.0639292C8.43502 0.339961 7.79208 1.4299 8.06806 2.49847C8.24986 3.20236 8.79984 3.75213 9.504 3.93387V7.05292C9.0598 7.12707 8.6385 7.30118 8.27154 7.56195L5.76281 5.05401C5.74847 5.04318 5.73351 5.03311 5.71794 5.02395C6.18625 4.24041 6.06337 3.23928 5.41967 2.59185C4.62881 1.8367 3.38353 1.8367 2.59268 2.59185C1.8122 3.37249 1.81235 4.63775 2.59313 5.41809C2.96803 5.79269 3.47634 6.00311 4.00632 6.00326C4.36626 6.00189 4.71903 5.90255 5.02661 5.71579C5.03561 5.7312 5.04553 5.746 5.05622 5.76034L7.56479 8.26828C7.30392 8.63525 7.12975 9.05655 7.05557 9.50043H3.93534C3.65921 8.43185 2.56886 7.78931 1.49989 8.06518C0.43076 8.34106 -0.21203 9.431 0.0639532 10.4997C0.340089 11.5683 1.43043 12.2108 2.49941 11.935C3.20356 11.7532 3.75354 11.2036 3.93534 10.4997H7.05557C7.12975 10.9436 7.30392 11.3651 7.56479 11.7317L5.05622 14.2398C5.04431 14.2555 5.03347 14.272 5.02355 14.2889C4.23743 13.8397 3.24951 13.9589 2.59298 14.5824C1.8093 15.36 1.80472 16.6252 2.5826 17.4085C3.36063 18.1917 4.62637 18.1963 5.4099 17.4187C6.06169 16.7719 6.18869 15.7645 5.71794 14.9762C5.73351 14.967 5.74847 14.9571 5.76297 14.9461L8.27154 12.4382C8.6385 12.699 9.05995 12.8731 9.504 12.9472V16.0663C8.43502 16.3422 7.79208 17.4321 8.06806 18.5008C8.3442 19.5694 9.43454 20.212 10.5035 19.9361C11.5726 19.6602 12.2154 18.5703 11.9395 17.5015C11.7577 16.7976 11.2078 16.248 10.5035 16.0663V12.9472C10.9477 12.8731 11.3692 12.699 11.7361 12.4382L14.245 14.9461C14.2595 14.957 14.2745 14.9669 14.29 14.9757C13.724 15.9233 14.0337 17.15 14.9815 17.7156C15.9293 18.2814 17.1564 17.972 17.7223 17.0245C18.2883 16.0771 17.9787 14.8505 17.0309 14.2847C16.3999 13.9079 15.6129 13.9079 14.9817 14.2845C14.9727 14.2691 14.9627 14.2542 14.9521 14.2398L12.4432 11.7319C12.7039 11.3651 12.8779 10.9436 12.952 10.4997H16.0723C16.3501 11.566 17.4402 12.2052 18.5067 11.9275C19.5736 11.6496 20.213 10.5602 19.935 9.49387C19.7057 8.61374 18.9102 8.00018 18.0004 8.00171Z" fill="#060606"/>
</svg>
