<svg width="72" height="72" viewBox="0 0 72 72" fill="none" xmlns="http://www.w3.org/2000/svg">
<path d="M59.3346 12.6655C53.1017 6.43264 44.8146 3 36 3C27.1854 3 18.8983 6.43264 12.6654 12.6655C6.43252 18.8984 3 27.1854 3 36C3 44.8146 6.43252 53.1017 12.6654 59.3345C18.8983 65.5672 27.1854 69 36 69C44.8146 69 53.1017 65.5674 59.3346 59.3345C65.5675 53.1016 69 44.8146 69 36C69 27.1854 65.5675 18.8983 59.3346 12.6655ZM36 62.5227C21.3752 62.5227 9.47728 50.6247 9.47728 36C9.47728 35.976 9.47806 35.9523 9.47818 35.9286C9.47818 35.9225 9.47728 35.9167 9.47728 35.9107C9.47728 35.9005 9.47857 35.8907 9.47883 35.8806C9.54315 21.4311 21.2204 9.67528 35.6396 9.48192C35.6697 9.4805 35.6996 9.47741 35.7302 9.47741C35.7485 9.47741 35.7663 9.4796 35.7845 9.48012C35.8564 9.4796 35.9281 9.47741 36.0001 9.47741C50.6249 9.47741 62.5228 21.3755 62.5228 36.0001C62.5228 50.6248 50.6248 62.5227 36 62.5227Z" fill="#060606"/>
<path d="M56.1464 37.5933C55.0679 37.5933 54.1937 36.7191 54.1937 35.6406C54.1937 34.5622 55.0679 33.688 56.1464 33.688H58.5001C57.3946 22.85 48.605 14.2524 37.6827 13.4452V15.4941C37.6827 16.5726 36.8085 17.4468 35.7301 17.4468C34.6516 17.4468 33.7774 16.5726 33.7774 15.4941V13.4918C23.0168 14.5463 14.4455 23.1729 13.4757 33.9578H15.5836C16.662 33.9578 17.5362 34.832 17.5362 35.9104C17.5362 36.9889 16.662 37.8631 15.5836 37.8631H13.4597C14.3575 48.8215 23.1007 57.5916 34.0473 58.5322V56.0568C34.0473 54.9784 34.9216 54.1041 36 54.1041C37.0784 54.1041 37.9527 54.9784 37.9527 56.0568V58.5322C48.9889 57.5838 57.7853 48.6772 58.5605 37.5933H56.1464ZM43.9045 30.8569L37.3808 37.3807C37.0146 37.747 36.5181 37.9527 36.0001 37.9527C35.4823 37.9527 34.9855 37.747 34.6194 37.3807L23.2637 26.025C22.5011 25.2625 22.5011 24.0262 23.2637 23.2636C24.0262 22.501 25.2625 22.501 26.0251 23.2636L36.0003 33.2386L41.1434 28.0955C41.9058 27.3329 43.1422 27.3329 43.9048 28.0955C44.6671 28.858 44.6671 30.0944 43.9045 30.8569Z" fill="#060606"/>
</svg>
