<svg width="68" height="68" viewBox="0 0 68 68" fill="none" xmlns="http://www.w3.org/2000/svg">
<g clip-path="url(#clip0_1044_353)">
<path d="M1.98923 51.9311H54.0541C54.521 51.9311 54.9724 51.7678 55.3303 51.47C55.8304 51.0512 67.2378 41.2379 67.9333 20.0547H12.0168C11.3238 39.2833 0.818167 48.3214 0.708991 48.4116C0.0689384 48.9524 -0.166549 49.8358 0.121402 50.6218C0.40736 51.4058 1.1526 51.9311 1.98923 51.9311Z" fill="#CCCCCC"/>
<path d="M66.0083 8.10174H56.0469V6.10946C56.0469 4.99379 55.1703 4.11719 54.0546 4.11719C52.9389 4.11719 52.0623 4.99379 52.0623 6.10946V8.10174H41.9681V6.10946C41.9681 4.99379 41.0915 4.11719 39.9759 4.11719C38.8602 4.11719 37.9836 4.99379 37.9836 6.10946V8.10174H28.0222V6.10946C28.0222 4.99379 27.1456 4.11719 26.0299 4.11719C24.9142 4.11719 24.0376 4.99379 24.0376 6.10946V8.10174H14.0763C12.9606 8.10174 12.084 8.97834 12.084 10.094V16.0708H68.0006V10.094C68.0006 8.97834 67.124 8.10174 66.0083 8.10174Z" fill="#C43D3D"/>
<path d="M57.8894 54.5274C56.8075 55.4282 55.4496 55.9186 54.0546 55.9186H12.084V61.8954C12.084 62.9966 12.9751 63.8877 14.0763 63.8877H66.0083C67.1095 63.8877 68.0006 62.9966 68.0006 61.8954V39.5625C64.1594 48.9861 58.7994 53.7657 57.8894 54.5274Z" fill="#CCCCCC"/>
</g>
<defs>
<clipPath id="clip0_1044_353">
<rect width="68" height="68" fill="white"/>
</clipPath>
</defs>
</svg>
